<?xml version="1.0" encoding="UTF-8" standalone="no"?><!DOCTYPE svg PUBLIC "-//W3C//DTD SVG 1.1//EN" "http://www.w3.org/Graphics/SVG/1.1/DTD/svg11.dtd"><svg width="100%" height="100%" viewBox="0 0 600 600" version="1.1" xmlns="http://www.w3.org/2000/svg" xmlns:xlink="http://www.w3.org/1999/xlink" xml:space="preserve" xmlns:serif="http://www.serif.com/" style="fill-rule:evenodd;clip-rule:evenodd;stroke-linecap:round;stroke-linejoin:round;stroke-miterlimit:1.5;"><rect id="Монтажная-область1" serif:id="Монтажная область1" x="0" y="0" width="600" height="600" style="fill:none;"/><g><g><path d="M362.686,251.645c0.412,-2.469 5.464,-6.245 7.564,-7.1c25.542,-10.403 16.589,18.888 1.719,17.728" style="fill:#61e0ee;"/><path d="M365.65,252.139c0.021,-0.127 0.145,-0.238 0.246,-0.383c0.294,-0.423 0.688,-0.855 1.124,-1.28c1.437,-1.403 3.325,-2.726 4.363,-3.148c3.373,-1.374 6.051,-2.008 8.143,-2.017c1.398,-0.007 2.437,0.238 3.092,0.865c0.505,0.483 0.7,1.169 0.749,1.913c0.074,1.123 -0.198,2.368 -0.697,3.604c-1.601,3.97 -5.567,7.967 -10.468,7.585c-1.653,-0.129 -3.1,1.108 -3.229,2.761c-0.129,1.653 1.109,3.1 2.762,3.229c7.591,0.592 14.028,-5.179 16.508,-11.327c1.876,-4.651 1.394,-9.364 -1.47,-12.105c-2.718,-2.602 -8.297,-3.885 -17.657,-0.073c-1.734,0.706 -5.197,3.07 -7.273,5.443c-1.188,1.359 -1.925,2.777 -2.12,3.945c-0.273,1.636 0.834,3.185 2.47,3.457c1.635,0.273 3.184,-0.834 3.457,-2.469Z"/><path d="M271.078,184.383c-0,0 10.477,-10.913 14.405,15.715" style="fill:none;stroke:#61e0ee;stroke-width:4.51px;"/><path d="M307.31,181.764c-0,-0 -10.04,-10.477 -13.533,17.025" style="fill:none;stroke:#61e0ee;stroke-width:4.51px;"/><path d="M279.951,172.93c-0,0 11.788,-7.514 9.613,22.87" style="fill:none;stroke:#61e0ee;stroke-width:4.51px;"/><path d="M244.626,442.249c-0,-0 1.221,-22.341 12.967,-28.985c11.746,-6.644 19.683,1.921 13.286,9.998c-6.397,8.076 -11.71,16.223 -10.275,24.369c1.434,8.146 -16.886,8.707 -15.978,-5.382Z" style="fill:#d6c295;stroke:#000;stroke-width:4.51px;"/><path d="M345.687,444.847c0,-0 -11.825,-18.993 -6.022,-31.177c5.804,-12.183 17.22,-9.727 16.619,0.559c-0.602,10.285 -0.275,20.006 5.576,25.852c5.85,5.847 -8.827,16.823 -16.173,4.766Z" style="fill:#d6c295;stroke:#000;stroke-width:4.51px;"/><path d="M224.299,232.401c-2.344,0.878 -4.871,-0.598 -6.661,-1.989c-21.781,-16.919 7.986,-23.697 14.416,-10.239" style="fill:#61e0ee;"/><path d="M223.245,229.588c-0.474,0.177 -0.96,0.034 -1.424,-0.141c-0.864,-0.327 -1.666,-0.884 -2.34,-1.407c-2.878,-2.236 -4.768,-4.238 -5.826,-6.042c-0.705,-1.203 -1.016,-2.219 -0.804,-3.094c0.162,-0.667 0.65,-1.168 1.26,-1.574c0.929,-0.618 2.136,-0.997 3.448,-1.177c4.229,-0.58 9.664,0.877 11.785,5.315c0.714,1.496 2.509,2.131 4.006,1.416c1.496,-0.715 2.13,-2.51 1.415,-4.006c-3.281,-6.868 -11.48,-9.575 -18.023,-8.678c-4.964,0.682 -8.798,3.445 -9.73,7.287c-0.883,3.637 0.803,9.099 8.783,15.298c2.54,1.973 6.232,3.676 9.558,2.43c1.553,-0.582 2.341,-2.315 1.759,-3.868c-0.581,-1.553 -2.314,-2.341 -3.867,-1.759Z"/><path d="M225.716,410.424c-0,-0 -11.321,-22.256 -9.182,-41.346c6.697,-59.764 -10.895,-71.489 -4.017,-107.944c2.388,-12.658 6.902,-27.075 14.59,-37.554c16.896,-23.031 49.371,-34.994 77.618,-29.586c11.311,2.166 21.523,7.063 31.631,12.432c35.165,18.681 42.472,58.107 37.902,91.338c-2.023,14.71 -14.671,37.637 -12.821,52.388c3.858,30.751 2.779,47.395 -6.822,67.23c-8.183,16.906 -40.028,29.642 -74.843,26.022c-5.932,-0.616 -41.427,-6.837 -54.056,-32.98Z" style="fill:#61e0ee;"/><clipPath id="_clip1"><path d="M225.716,410.424c-0,-0 -11.321,-22.256 -9.182,-41.346c6.697,-59.764 -10.895,-71.489 -4.017,-107.944c2.388,-12.658 6.902,-27.075 14.59,-37.554c16.896,-23.031 49.371,-34.994 77.618,-29.586c11.311,2.166 21.523,7.063 31.631,12.432c35.165,18.681 42.472,58.107 37.902,91.338c-2.023,14.71 -14.671,37.637 -12.821,52.388c3.858,30.751 2.779,47.395 -6.822,67.23c-8.183,16.906 -40.028,29.642 -74.843,26.022c-5.932,-0.616 -41.427,-6.837 -54.056,-32.98Z"/></clipPath><g clip-path="url(#_clip1)"><path d="M351.405,220.899c-0,0 11.674,28.475 4.556,51.539c-7.119,23.065 -19.648,55.241 -17.654,87.417c1.993,32.177 -1.424,52.963 -8.543,62.075c-14.376,18.401 -53.532,21.071 -63.498,18.224c-9.966,-2.848 39.295,10.251 67.485,-1.139c28.189,-11.39 32.176,-59.227 28.474,-89.126c-3.702,-29.898 20.217,-38.44 12.244,-89.979c-12.813,-30.183 -13.098,-28.475 -23.064,-39.011Z" style="fill:#4fcbe0;"/><path d="M304.378,265.093c0,0 3.499,17.495 24.347,16.475c20.848,-1.021 22.306,-22.306 22.306,-22.306l-46.653,5.831Z" style="fill:#4fcbe0;"/><path d="M215.209,256.2c0,0 3.499,17.495 24.347,16.475c20.848,-1.021 22.306,-22.306 22.306,-22.306l-46.653,5.831Z" style="fill:#4fcbe0;"/></g><path d="M223.019,411.748c5.338,11.038 14.498,18.751 24.015,24.029c14.013,7.771 28.738,10.232 32.427,10.616c21.51,2.236 41.913,-1.626 56.619,-8.805c10.226,-4.993 17.724,-11.634 21.239,-18.897c9.843,-20.335 11.054,-37.388 7.099,-68.913c-0.878,-7.005 1.799,-15.931 4.823,-24.873c3.25,-9.61 6.961,-19.224 7.993,-26.732c4.729,-34.383 -3.084,-75.071 -39.469,-94.4c-10.373,-5.511 -20.866,-10.507 -32.475,-12.729c-29.338,-5.618 -63.056,6.838 -80.605,30.758c-7.942,10.826 -12.653,25.7 -15.12,38.775c-2.832,15.009 -1.653,25.945 0.363,37.602c2.903,16.787 7.591,35.131 3.621,70.564c-2.183,19.482 9.041,42.147 9.476,43.017l-0.006,-0.012Zm5.402,-2.631c-0.009,-0.018 -0.018,-0.037 -0.027,-0.055c-0,-0 -10.926,-21.336 -8.874,-39.65c3.395,-30.295 0.633,-48.415 -2.106,-63.581c-2.636,-14.598 -5.301,-26.351 -1.945,-44.14c2.31,-12.24 6.626,-26.2 14.061,-36.334c16.243,-22.141 47.475,-33.612 74.63,-28.412c11.013,2.109 20.945,6.906 30.787,12.134c33.946,18.033 40.746,56.197 36.335,88.275c-1.196,8.699 -6.199,20.301 -9.586,31.34c-2.43,7.919 -4.024,15.575 -3.24,21.832c3.76,29.976 2.813,46.212 -6.546,65.547c-3.03,6.262 -9.65,11.811 -18.466,16.115c-13.857,6.765 -33.093,10.336 -53.361,8.228c-3.429,-0.356 -17.109,-2.67 -30.135,-9.894c-8.505,-4.716 -16.761,-11.538 -21.527,-21.405Z"/><path d="M283.885,431.087c-35.477,-6.181 -43.902,-22.701 -45.946,-30.241c-3.85,-14.203 -5.715,-41.733 -2.256,-56.373c1.202,-5.083 3.472,-10.873 7.339,-15.081c8.498,-9.249 46.505,-10.054 60.712,-7.882c5.689,0.87 10.826,2.837 15.91,4.993c17.688,7.502 23.772,94.271 -9.797,102.735c-8.965,2.26 -20.331,2.83 -25.962,1.849Z" style="fill:#b7f8ff;"/><circle cx="222.391" cy="277.399" r="2.481" style="fill:#b7f8ff;"/><circle cx="345.571" cy="281.906" r="2.481" style="fill:#b7f8ff;"/><g><path d="M267.899,291.453c1.124,3.562 1.798,10.362 4.107,13.2c1.119,1.375 3.388,1.288 4.866,1.231c8.492,-0.326 7.75,-8.996 8.478,-16.632" style="fill:#ededed;"/><path d="M265.75,292.131c0.668,2.116 1.171,5.388 1.964,8.273c0.627,2.282 1.459,4.337 2.544,5.671c0.755,0.927 1.793,1.505 2.958,1.804c1.254,0.322 2.669,0.298 3.742,0.257c2.744,-0.106 4.721,-0.943 6.189,-2.207c1.448,-1.246 2.414,-2.945 3.03,-4.961c1.007,-3.291 1.037,-7.529 1.416,-11.503c0.118,-1.238 -0.792,-2.338 -2.03,-2.456c-1.238,-0.118 -2.339,0.791 -2.457,2.029c-0.348,3.663 -0.311,7.578 -1.238,10.613c-0.351,1.147 -0.837,2.153 -1.661,2.863c-0.804,0.692 -1.918,1.061 -3.421,1.118c-0.612,0.024 -1.387,0.067 -2.125,-0.051c-0.337,-0.054 -0.696,-0.09 -0.907,-0.35c-0.762,-0.937 -1.254,-2.419 -1.695,-4.022c-0.808,-2.942 -1.33,-6.276 -2.012,-8.434c-0.374,-1.186 -1.641,-1.845 -2.827,-1.471c-1.186,0.375 -1.845,1.641 -1.47,2.827Z"/><path d="M277.074,265.001c6.874,0.423 12.236,4.314 11.967,8.684c-0.269,4.37 -6.067,7.574 -12.941,7.152c-6.874,-0.423 -12.236,-4.314 -11.967,-8.684c0.269,-4.37 6.067,-7.575 12.941,-7.152Z"/><path d="M273.606,278.417c-0.064,3.732 -0.703,7.313 -0.982,11.011c-0.093,1.24 0.837,2.323 2.078,2.416c1.24,0.094 2.322,-0.837 2.416,-2.077c0.286,-3.786 0.929,-7.453 0.994,-11.274c0.021,-1.243 -0.972,-2.27 -2.215,-2.291c-1.244,-0.021 -2.27,0.971 -2.291,2.215Z"/><path d="M257.761,289.031c7.122,4.05 13.975,5.554 20.462,4.621c6.486,-0.933 12.645,-4.308 18.35,-10.221c0.863,-0.895 0.838,-2.323 -0.057,-3.186c-0.895,-0.864 -2.323,-0.838 -3.186,0.057c-4.912,5.091 -10.164,8.087 -15.749,8.889c-5.584,0.803 -11.461,-0.591 -17.593,-4.077c-1.081,-0.615 -2.457,-0.236 -3.072,0.845c-0.615,1.081 -0.236,2.458 0.845,3.072Z"/><path d="M251.208,206.796c2.618,-0.793 5.077,-0.335 5.489,1.022c0.411,1.357 -1.38,3.103 -3.998,3.897c-2.618,0.793 -5.077,0.335 -5.488,-1.022c-0.412,-1.358 1.38,-3.104 3.997,-3.897Z" style="fill:#b7f8ff;"/><path d="M346.709,218.391c1.76,2.094 2.306,4.535 1.22,5.448c-1.086,0.912 -3.396,-0.048 -5.155,-2.143c-1.759,-2.095 -2.306,-4.536 -1.22,-5.448c1.086,-0.912 3.396,0.048 5.155,2.143Z" style="fill:#b7f8ff;"/><path d="M233.494,215.884c13.946,-1.986 26.882,7.724 28.868,21.671c1.986,13.947 -7.724,26.882 -21.671,28.868c-13.946,1.986 -26.882,-7.724 -28.868,-21.671c-1.986,-13.946 7.724,-26.882 21.671,-28.868Z" style="fill:#fff;stroke:#000;stroke-width:4.51px;"/><path d="M323.455,223.359c13.946,-1.986 26.882,7.724 28.868,21.671c1.986,13.946 -7.724,26.881 -21.671,28.868c-13.946,1.986 -26.882,-7.725 -28.868,-21.671c-1.986,-13.947 7.724,-26.882 21.671,-28.868Z" style="fill:#fff;stroke:#000;stroke-width:4.51px;"/><path d="M240.57,241.051c4.954,-0.705 9.548,2.744 10.254,7.698c0.705,4.953 -2.744,9.548 -7.698,10.253c-4.953,0.706 -9.548,-2.743 -10.253,-7.697c-0.706,-4.954 2.743,-9.548 7.697,-10.254Z"/><path d="M319.092,246.449c4.954,-0.706 9.548,2.743 10.254,7.697c0.705,4.953 -2.744,9.548 -7.698,10.253c-4.953,0.706 -9.548,-2.743 -10.253,-7.697c-0.706,-4.953 2.743,-9.548 7.697,-10.253Z"/><path d="M243.435,250.638c1.391,-0.198 2.681,0.77 2.879,2.161c0.198,1.391 -0.771,2.681 -2.162,2.879c-1.39,0.198 -2.68,-0.77 -2.878,-2.161c-0.199,-1.391 0.77,-2.681 2.161,-2.879Z" style="fill:#fff;"/><path d="M316.696,255.816c1.391,-0.198 2.681,0.77 2.879,2.161c0.198,1.391 -0.77,2.681 -2.161,2.879c-1.391,0.198 -2.681,-0.77 -2.879,-2.161c-0.198,-1.391 0.77,-2.681 2.161,-2.879Z" style="fill:#fff;"/></g></g><path d="M263.175,332.715c-0,0 -22.993,-5.225 -32.922,26.128c-9.928,31.354 3.658,95.106 -62.706,94.06" style="fill:none;stroke:#000;stroke-width:4.02px;"/><path d="M302.366,332.193c0,-0 22.993,-5.226 32.922,26.128c9.928,31.353 -3.658,95.105 62.706,94.06" style="fill:none;stroke:#000;stroke-width:4.02px;"/><path d="M321.801,332.914c-0,-0 22.335,-1.307 30.262,9.615c7.926,10.922 0.311,19.775 -8.435,14.329c-8.747,-5.445 -17.441,-9.805 -25.373,-7.461c-7.932,2.344 -10.556,-15.795 3.546,-16.483Z" style="fill:#d6c295;stroke:#000;stroke-width:4.51px;"/><path d="M240.48,330.725c0,-0 -22.373,0.185 -29.553,11.611c-7.181,11.426 1.007,19.751 9.371,13.735c8.364,-6.016 16.748,-10.946 24.819,-9.136c8.07,1.809 9.48,-16.465 -4.637,-16.21Z" style="fill:#d6c295;stroke:#000;stroke-width:4.51px;"/><path d="M261.254,328.118c0,-0.704 -0.571,-1.275 -1.275,-1.275l-2.549,-0c-0.704,-0 -1.275,0.571 -1.275,1.275l-0,8.249c-0,0.703 0.571,1.275 1.275,1.275l2.549,-0c0.704,-0 1.275,-0.572 1.275,-1.275l0,-8.249Z" style="fill:#828282;stroke:#000;stroke-width:2.88px;"/><path d="M280.094,322.709c-0,-0 -9.088,-1.559 -10.567,1.966c-1.597,3.809 -3.686,4.054 -7.74,4.792c-0.246,4.791 -0,5.528 -0,5.528c-0,0 4.076,-2.536 6.757,2.826c1.843,3.686 11.427,2.212 11.427,2.212l0.123,-17.324Z" style="fill:#989898;stroke:#000;stroke-width:2.88px;"/><path d="M306.264,324.733c0,-1.875 -1.522,-3.397 -3.397,-3.397l-6.794,-0c-1.875,-0 -3.398,1.522 -3.398,3.397l0,12.844c0,1.875 1.523,3.397 3.398,3.397l6.794,0c1.875,0 3.397,-1.522 3.397,-3.397l0,-12.844Z" style="fill:#989898;stroke:#000;stroke-width:3.45px;"/><path d="M280.683,327.013l5.505,-0" style="fill:none;stroke:#000;stroke-width:4.07px;"/><path d="M280.555,336.306l5.505,-0" style="fill:none;stroke:#000;stroke-width:4.07px;"/><circle cx="299.296" cy="327.354" r="1.873"/><circle cx="299.296" cy="334.94" r="1.873"/><g><path d="M15.201,313.725c-0,0 -4.817,84.65 2.753,88.091c7.57,3.441 141.083,-4.817 141.083,-4.817c-0,-0 3.441,-79.833 -2.065,-88.091c-5.505,-8.259 -141.771,4.817 -141.771,4.817Z" style="fill:#fff2eb;stroke:#000;stroke-width:3.45px;"/><path d="M85.902,357.184l-70.701,-43.459l70.701,43.459Z" style="fill:none;stroke:#000;stroke-width:4.02px;"/><path d="M156.442,309.014l-70.54,48.17" style="fill:none;stroke:#000;stroke-width:4.02px;"/><path d="M17.165,400.482l60.618,-47.087" style="fill:none;stroke:#000;stroke-width:4.02px;"/><path d="M95.102,350.689l64.226,46.185" style="fill:none;stroke:#000;stroke-width:4.02px;"/></g><g><path d="M579.1,310.856c0,-0 4.818,84.65 -2.753,88.091c-7.57,3.441 -141.083,-4.818 -141.083,-4.818c0,0 -3.441,-79.832 2.065,-88.09c5.505,-8.259 141.771,4.817 141.771,4.817Z" style="fill:#fff2eb;stroke:#000;stroke-width:3.45px;"/><path d="M508.399,354.315l70.701,-43.459l-70.701,43.459Z" style="fill:none;stroke:#000;stroke-width:4.02px;"/><path d="M437.859,306.145l70.54,48.17" style="fill:none;stroke:#000;stroke-width:4.02px;"/><path d="M577.136,397.613l-60.618,-47.087" style="fill:none;stroke:#000;stroke-width:4.02px;"/><path d="M499.199,347.82l-64.226,46.185" style="fill:none;stroke:#000;stroke-width:4.02px;"/></g><path d="M435.013,201.228l1.226,10.644l6.7,1.948l-6.7,1.948l-1.226,10.644l-1.226,-10.644l-6.7,-1.948l6.7,-1.948l1.226,-10.644Z" style="fill:none;stroke:#000;stroke-width:1.92px;"/><path d="M156.033,256.848l1.226,10.644l6.7,1.948l-6.7,1.947l-1.226,10.644l-1.226,-10.644l-6.7,-1.947l6.7,-1.948l1.226,-10.644Z" style="fill:none;stroke:#000;stroke-width:1.92px;"/><path d="M397.933,391.924l1.226,10.643l6.7,1.948l-6.7,1.948l-1.226,10.644l-1.226,-10.644l-6.7,-1.948l6.7,-1.948l1.226,-10.643Z" style="fill:none;stroke:#000;stroke-width:1.92px;"/></g></svg>