<?xml version="1.0" encoding="utf-8"?>
<!-- Generator: Adobe Illustrator 24.3.0, SVG Export Plug-In . SVG Version: 6.00 Build 0)  -->
<svg version="1.1" id="Untitled-1_xA0_Image_1_" xmlns="http://www.w3.org/2000/svg" xmlns:xlink="http://www.w3.org/1999/xlink"
	 x="0px" y="0px" viewBox="0 0 1300 1224" style="enable-background:new 0 0 1300 1224;" xml:space="preserve">
<style type="text/css">
	.st0{fill:none;}
	.st1{fill:#1C1C1C;}
	.st2{fill:#FEFEFE;}
	.st3{fill:#202020;}
	.st4{fill:#524B41;}
	.st5{fill:#ACC3D6;}
	.st6{fill:#C3C3C3;}
	.st7{fill:#0A0A0A;}
	.st8{fill:#050505;}
	.st9{fill:#161616;}
	.st10{fill:#DBDBDB;}
	.st11{fill:#96A9B9;}
	.st12{fill:#DADADA;}
	.st13{fill:#A9A9A9;}
	.st14{fill:#FCFCFC;}
	.st15{fill:#121212;}
	.st16{fill:#141414;}
	.st17{fill:#070707;}
	.st18{fill:#CDDBE6;}
	.st19{fill:#1D1D1D;}
	.st20{fill:#CCBDAC;}
	.st21{fill:#958B7F;}
	.st22{fill:#565656;}
	.st23{fill:#434343;}
	.st24{fill:#B8B8B8;}
	.st25{fill:#FDFDFD;}
	.st26{fill:#BABABA;}
	.st27{fill:#F8F8F8;}
	.st28{fill:#1B1B1B;}
</style>
<g>
	<path class="st0" d="M1044.2,265.9c7,7.4,16.2,6.3,25,6.3c0.5,0,0.9,0.3,1.8,0.5c0.1,0,0.1-0.1,0.2-0.1c-1-0.3-1.6-0.6-2-0.6
		c-8.9,0-17.9,1.1-25-6.3c-0.3-0.3-1.3-0.1-2-0.1c2.1-6.4,4.3-12.7,6.4-19.1c1.4-4,0.7-7.4-3.7-8.7c-3.2-0.9-5.2,0.4-6.5,2.8
		c1.3-2.3,3.1-3.5,6.4-2.7c4.4,1.1,5,4.7,3.7,8.7c-2.1,6.4-4.3,12.7-6.4,19.1c-2.8,5.3-5.5,10.6-8.7,16.8c0.1,0,0.1,0,0.2,0
		c3.2-6,5.9-11.4,8.6-16.7C1042.9,265.8,1043.9,265.6,1044.2,265.9z"/>
	<path class="st0" d="M675.2,613.5c-0.3,0-0.6,0.1-0.9,0.1C674.6,613.6,674.9,613.6,675.2,613.5z"/>
	<path class="st0" d="M1040.6,292.8c4.6,0.1,9,0.1,13.6,0.1h0.1C1049.6,292.8,1045.2,292.8,1040.6,292.8L1040.6,292.8z"/>
	<path class="st0" d="M263.2,241.3c-1.1,0.4-2,1-2.5,1.7C261.3,242.3,262,241.8,263.2,241.3c1.9-0.6,3.4-0.4,4.7,0.4
		C266.6,240.9,265.1,240.6,263.2,241.3z"/>
	<path class="st0" d="M1076.8,288.3c0.7-1.9-0.2-3.7-2.9-6.2c-2.4-1.6-5.1-0.4-7.6-1c-0.2-0.2-0.4-0.2-0.6-0.3
		c-0.9-0.3-1.8-0.7-1.9-1.4c-0.1,0.7,0.8,1.1,1.9,1.7c0.1,0.1,0.3,0.1,0.4,0.2h0.1c2.5,0.5,5.3-0.6,7.6,1
		C1076.3,284.9,1077.4,286.5,1076.8,288.3z M1065.6,281c0.2,0.1,0.4,0.2,0.6,0.3C1066,281.2,1065.8,281.1,1065.6,281z"/>
	<path class="st0" d="M655.8,630.7c13.2-3.1,23.2-10.7,29.3-22.8l0,0l0,0C678.8,620,669,627.6,655.8,630.7z"/>
	<path class="st0" d="M655.2,631c0.1,0,0.1,0,0.2-0.1c-11.1-1.5-20.7-5.6-28.2-13.2C634.7,625.2,644.2,629.4,655.2,631z"/>
	<path class="st0" d="M1075,287.4c-0.2,3.1-3,3.3-5.5,3.4C1072,290.8,1074.9,290.5,1075,287.4z"/>
	<path class="st0" d="M976.5,261.5c0.2,0.7,0.9,1.3,1.7,1.8c2,1.3,3.9,2.5,5.8,3.9c-1.9-1.4-3.8-2.6-5.7-3.9
		C977.5,262.7,976.6,262.2,976.5,261.5z"/>
	<path class="st0" d="M1033.8,292.2c0.2-0.1,0.3-0.1,0.5-0.1C1034.1,292.2,1033.9,292.2,1033.8,292.2z"/>
	<path class="st0" d="M661.8,598.7c4.9,2.3,7.6,6.2,9,11.3C669.6,604.9,666.9,601,661.8,598.7z"/>
	<path class="st0" d="M1005.6,283.1c2,1.6,4,3.2,5.9,4.9c0.9,0.7,1.6,1.1,2.3,1c-0.6,0-1.4-0.3-2.2-1
		C1009.7,286.3,1007.6,284.8,1005.6,283.1z"/>
	<path class="st0" d="M1040.4,292.8L1040.4,292.8C1040.5,292.8,1040.5,292.8,1040.4,292.8C1040.5,292.8,1040.5,292.8,1040.4,292.8
		C1040.5,292.8,1040.5,292.8,1040.4,292.8z"/>
	<path class="st0" d="M1009,253.9c-0.3-5.1,0.7-10,2.4-14.6c-1.7,4.7-2.7,9.6-2.4,14.7c0.5,8.3,4.8,12.9,13,14
		c1.8,0.2,3.2,0.7,4.5,1.9c0,0,0,0,0-0.1c-1.3-1.3-2.8-1.8-4.6-2C1013.8,266.8,1009.5,262.2,1009,253.9z"/>
	<path class="st0" d="M977.2,259.7c10-13,19.9-26.3,33.9-35.5c3.4,1,5.2-3,8.8-2.8c0,0,0-0.1,0.1-0.1c-3.7-0.2-5.4,3.8-8.6,2.6
		c-0.1,0.1-0.2,0.1-0.3,0.2c-14,9.3-23.8,22.4-33.9,35.5c-0.6,0.7-0.7,1.4-0.7,1.8C976.4,261,976.5,260.5,977.2,259.7z"/>
	<path class="st0" d="M681.6,785.6c0.4,2.4-1.6,3.3-3.4,4.2c-4.4,2-8.8,3.5-13.1,4.6c4.5-1,8.9-2.6,13.4-4.6
		c1.8-0.8,3.9-1.7,3.3-4.2l0,0H681.6z"/>
	<path class="st0" d="M1029.5,332.6c0.1,0.2,0.2,0.4,0.2,0.7l0,0C1029.7,333.1,1029.6,332.9,1029.5,332.6z"/>
	<path class="st0" d="M968.7,319.8C968.7,319.8,968.8,319.8,968.7,319.8c0-0.1-0.2-0.1-0.3-0.1c-9.8,2.5-20.9,3.7-30.1,7.7
		c-15.4,0-30.9,0-46.3,0c0-1.6,0.4-2.1,0.8-2.4c-0.5,0.2-0.9,0.8-0.9,2.5c15.4,0,30.9,0,46.3,0c0.1,0,0.1,0,0.2,0
		c9.5-4.2,20.5-5.1,30.2-7.7H968.7z"/>
	<path class="st0" d="M246.5,263.9L246.5,263.9c-3.8-1.8-7.5-3.3-11.2-5.2c-4.7-2.5-8.2-1.9-10.7,2.8c0,0,0,0,0.1,0.1l0,0
		c2.6-4.6,6.2-5.1,10.6-2.7c3.7,2,7.4,3.5,11.2,5.2c5.8,3,11.6,6.2,17.9,9.6c-0.4-2-0.8-3.9-1.1-5.7c0.3,1.8,0.7,3.5,1,5.4
		C258,270.1,252.2,266.9,246.5,263.9z"/>
	<path class="st0" d="M998.3,324c-5.9-1.1-12-2.1-18-2.9c-2.6-0.3-6.2-0.8-9.1-1c2.9,0.3,6.5,0.7,9.1,1
		C986.3,321.9,992.4,322.8,998.3,324z"/>
	<path class="st0" d="M1060.1,290.9c-8,0.2-16.1-0.9-23.9,1.1C1044.1,290.1,1052.1,291.1,1060.1,290.9z"/>
	<path class="st0" d="M261.8,261.2c-0.8-4.2-1.7-8.1-2.5-12.2l0,0c0,0.1,0,0.1,0,0.1C260.2,253.1,261,257.1,261.8,261.2z"/>
	<path class="st0" d="M998.3,324c8,1.6,15.9,3.5,23.7,5.9C1014.3,327.5,1006.4,325.6,998.3,324z"/>
	<path class="st0" d="M744.3,713c-4.8,7.6-11.1,13.6-20,15.4c-8.8,1.9-14.2,7.3-17.9,15c-1.6,3.3-2.6,7-6.2,9.2v0.1
		c3.5-2.1,4.6-5.9,6.3-9.3c3.8-7.7,9.2-13.1,17.9-15C733.4,726.5,739.7,720.7,744.3,713c1.7-2.3,3-4.9,1.8-7.9c0,0,0,0-0.1,0.1
		C747.3,708.1,745.8,710.6,744.3,713z"/>
	<path class="st0" d="M601.1,595.6c8.9-6.3,19.1-9,29.6-10.4c7-1,14.2-2.3,21.3-0.3c0.1,0,0.2,0,0.2,0c9.7,0.7,19.2,2.6,27.8,7.3
		c4.8,2.6,7,5.2,7.1,8.6c-0.1-3.4-2.3-5.9-7.1-8.6c-8.7-4.7-18.1-6.6-27.8-7.3c-7.2-2.2-14.4-0.8-21.6,0.2
		C620.1,586.5,609.9,589.2,601.1,595.6c-6.4,4.3-7.4,7.7-4,13.6C593.9,603.3,595,600,601.1,595.6z"/>
	<path class="st0" d="M1067.8,315.2c-9.2-2.5-12.9-7.3-12.9-16.8c0-1.9,0-3.8,0-5.5h-0.1c0,2,0,3.9,0,5.7
		c0.1,9.5,3.8,14.3,12.9,16.8c1.8,0.5,3.9,0.3,4.7,2.4c-5.6,10-5.3,9.2-15.7,5.4c-12.6-4.5-21-13.8-30.1-22.3
		c-0.9-0.8-1.5-1.6-1.5-2.3c-0.1,0.6,0.4,1.5,1.5,2.4c9.2,8.6,17.5,17.8,30.1,22.3c10.3,3.8,10,4.7,15.7-5.4
		c0.1-0.1,0.1-0.2,0.2-0.2C1071.7,315.5,1069.6,315.7,1067.8,315.2z"/>
	<path class="st0" d="M1027.5,334c-0.7,0-1.5-0.2-2.2-0.3C1026.1,333.8,1026.8,333.9,1027.5,334z"/>
	<path class="st0" d="M984,330.4c-0.4,0-0.9-0.1-1.4-0.1C983.1,330.2,983.6,330.2,984,330.4z"/>
	<path class="st0" d="M1058.7,280.1c0-0.1,0-0.2,0-0.3h-0.1C1058.6,279.9,1058.6,280,1058.7,280.1
		C1058.6,280.1,1058.7,280.1,1058.7,280.1z"/>
	<path class="st0" d="M644.1,651.3c-20-0.1-38-6.8-53.5-21.2c-0.9-0.9-1.8-1.1-2.6-1c0.7,0,1.6,0.2,2.5,1
		C606,644.5,624,651.2,644.1,651.3z"/>
	<path class="st0" d="M623.9,688.3c0.6,0,1.4,0,2,0C625.2,688.3,624.5,688.3,623.9,688.3z"/>
	<path class="st0" d="M639.3,688.1c7.4,0.1,14.8,0.6,22,2.9C654.1,688.7,646.8,688.2,639.3,688.1z"/>
	<path class="st0" d="M600.1,671.5c3.4-5.4,7.8-9.2,12.8-11.9C607.9,662.3,603.5,666.1,600.1,671.5z"/>
	<path class="st0" d="M701.5,624.2c-0.8-0.4-1.7-0.6-2.3-0.6C699.8,623.5,700.5,623.8,701.5,624.2c19.7,9.9,32.9,25.5,36,47.7
		c2.3,16.6-8,27.7-24,28c16.1-0.2,26.4-11.3,24.2-28C734.4,649.6,721.4,634.2,701.5,624.2z"/>
	<path class="st0" d="M604.4,702.8c-3.1,1.3-6.4,2.4-9.6,3.4C598.1,705.2,601.2,704.1,604.4,702.8c17.4-6.6,34.9-11.9,53.5-11.8
		C639.3,690.9,621.7,696.2,604.4,702.8z"/>
	<path class="st0" d="M628.4,745.6c0.9-5.5,2.6-10.8,6.5-15c0.7-0.8,1.5-1.7,2.4-2.3c-0.9,0.5-1.8,1.5-2.5,2.3
		C630.9,734.7,629.2,740.1,628.4,745.6c-1.7,9,0,17.5,3,25.9c0,0,0,0,0.1,0C628.5,763,626.8,754.6,628.4,745.6z"/>
	<path class="st0" d="M651.1,713c-0.1-2.6,1.1-3.3,3.4-3.3h-0.1C652.2,709.7,650.9,710.4,651.1,713c0.3,6.7,0.4,13.5,2.2,20l0,0
		l0.1-0.1C651.6,726.4,651.4,719.8,651.1,713z"/>
	<path class="st0" d="M654.9,771.8c-0.1-0.1-0.1-0.2-0.2-0.3C654.6,771.6,654.8,771.7,654.9,771.8z"/>
	<path class="st0" d="M655.3,772.1c-0.2-0.1-0.3-0.2-0.4-0.3C655,771.9,655.2,772,655.3,772.1z"/>
	<path class="st0" d="M674.3,766.7c-3.5,3.8-8.3,5.6-14.5,5.7C666,772.3,670.8,770.5,674.3,766.7z"/>
	<path class="st0" d="M683.9,694.2c-7.1-1.6-14.2-2.7-21.5-3C669.6,691.6,676.8,692.6,683.9,694.2z"/>
	<path class="st0" d="M906.9,1208.7c0,0.4,0,0.8,0,1.1C906.9,1209.5,906.9,1209.1,906.9,1208.7z"/>
	<path class="st0" d="M655.1,760.7c0,3-0.1,6.2-0.5,9.2c0,0.2,0,0.4,0,0.6c0-0.2,0-0.4,0-0.6C655,766.8,655.1,763.7,655.1,760.7z"/>
	<path class="st0" d="M637.9,728c-0.2,0.1-0.4,0.2-0.6,0.3C637.4,728.2,637.6,728.1,637.9,728z"/>
	<path class="st0" d="M640.1,727.7c-0.1,0-0.2,0-0.3-0.1C639.9,727.7,640,727.7,640.1,727.7z"/>
	<path class="st0" d="M489.6,936.1c-12.1,7.6-23.8,16.3-35,26.1c-5,4.4-9.8,8.9-14.5,13.6c4.6-4.6,9.4-9.1,14.4-13.5
		C465.8,952.5,477.4,943.8,489.6,936.1z"/>
	<path class="st0" d="M618,717.6c2.7-0.9,5.5-1.9,8.2-2.8C623.5,715.6,620.7,716.6,618,717.6z"/>
	<path class="st0" d="M604.3,896c13.8-1.8,27.3-2.7,40.9-2.7C631.6,893.4,617.9,894.3,604.3,896z"/>
	<path class="st0" d="M612.9,719.5C612.9,719.5,613,719.5,612.9,719.5L612.9,719.5z"/>
	<path class="st0" d="M848.8,1215.9c-14.6,0-29.2-0.3-43.8,0.1c-77,2.1-154-0.3-230.9,1.1c-72.3,1.4-144.6,0.2-216.8,0.8
		c-7.3,0.1-8.3,0-8.3-5.6c0,5.6,1,5.6,8.3,5.6c72.3-0.6,144.6,0.5,216.8-0.8c77-1.5,154,0.9,230.9-1.1
		C819.6,1215.6,834.2,1215.9,848.8,1215.9c17,0,34.1,0,51.1,0h0.1h-0.1C882.9,1215.9,865.8,1215.9,848.8,1215.9z"/>
	<path class="st0" d="M638.7,727.7c-0.2,0-0.4,0.1-0.6,0.2C638.3,727.9,638.5,727.7,638.7,727.7z"/>
	<path class="st0" d="M639.5,727.6c-0.2,0-0.4,0-0.6,0C639,727.7,639.3,727.6,639.5,727.6z"/>
	<path class="st0" d="M720.1,563.6c0.5,9.3,1.4,18.7,2.3,28.1c0.8,7.4,2,14.7,3,22.1c0.2,1.1,0.7,2.4-0.3,3.4
		c-0.7-0.6-1.4-1.3-2.1-1.8c-4.3-3.5-9.1-6.2-14.2-8.2c-0.9-0.3-1.7-0.7-2.1-1.3c0.5,0.6,1.3,1,2.2,1.5c5.1,2.1,9.9,4.7,14.4,8.4
		c0.6,0.5,1.4,1,1.9,1.7c0.9-1,0.5-2.3,0.3-3.4c-1-7.4-2.3-14.7-3-22.1c-1-9.3-1.8-18.7-2.3-28.1c-0.5-9.2-0.6-18.5-0.3-27.6
		c0-0.1-0.1-0.1-0.1-0.2c0-0.1,0-0.1,0-0.2C719.5,545.1,719.6,554.3,720.1,563.6z"/>
	<path class="st0" d="M721.6,422.8c-1.5,28.3-2.2,56.5-2.1,84.8c-0.1-28.2,0.6-56.3,2.1-84.5c0.1-2,0.2-3.4,0.1-4.6
		C721.8,419.5,721.7,420.9,721.6,422.8z"/>
	<path class="st0" d="M571.3,426.9c-0.2-3.8-0.4-6.3-0.4-8c0,1.8,0.3,4.4,0.4,8.3c1.4,26.8,1.9,53.7,1.9,80.6
		C573.2,480.9,572.7,453.8,571.3,426.9z"/>
	<path class="st0" d="M572.6,563.5c-0.7,17-2.5,33.9-5.3,50.8c-0.3,2.1-1.7,4.4,0.5,6.3c-1.6,1.9-2.7,3.9-3.2,6.4
		c-4.7,21-11.5,41-23.5,59c-1.5,2.3-2.6,4.5-2.7,7.2c0.1,0,0.1,0.1,0.2,0.1c0.1-2.7,1.3-4.9,2.7-7.2c12-18,18.8-38.2,23.5-59
		c0.5-2.5,1.7-4.5,3.2-6.4c0.2-0.2,0.4-0.5,0.7-0.7c0.2-0.1,0.3-0.2,0.5-0.3c5.9-3.8,9.1-8,7.8-16.5c-1.5-9.8,5.4-17.2,13.2-22.7
		c9.4-6.7,20-10.1,31.2-12.5c20.2-4.3,40.1-2.2,59.5,4.4c5.6,1.9,10.8,4.6,15.3,8.6c3.2,2.7,5.7,5.8,7.4,9.4
		c-1.7-3.5-4.2-6.8-7.5-9.6c-4.5-3.9-9.7-6.7-15.3-8.6c-19.4-6.6-39.2-8.8-59.5-4.4c-11.2,2.4-21.8,5.8-31.2,12.5
		c-7.8,5.6-14.7,12.9-13.2,22.7c1.3,8.4-1.8,12.7-7.8,16.5c-0.1,0.1-0.3,0.2-0.5,0.3c-0.3,0.2-0.5,0.5-0.7,0.7
		c-2.3-1.9-0.8-4.2-0.5-6.3c2.8-16.8,4.6-33.8,5.3-50.8c0.4-9.5,0.5-18.9,0.2-28.7v0.1C573.1,544.5,573,554,572.6,563.5z"/>
	<path class="st0" d="M571.8,540c0,0.7,0,1.4,0,2.1C571.8,541.4,571.8,540.7,571.8,540z"/>
	<path class="st0" d="M1012.9,422.8c-0.2-7.5,5.4-13.4,12.9-13.4c2.3,0,4.5,0.5,6.4,1.5c-1.9-1-4.1-1.6-6.5-1.6
		C1018.2,409.4,1012.6,415.1,1012.9,422.8c0,2.2,0.6,4.3,1.6,6C1013.6,427,1012.9,425,1012.9,422.8z"/>
	<path class="st0" d="M670,190.8c13.1,0.9,26.2,1.8,39.3,2.7c24.1,2,48,5.9,71.9,10.1c22.1,5.1,44.2,10.3,65.9,17.4
		c54.7,17.9,105.5,43.2,150.3,79.5c1.4,1,2.6,2.2,3.9,3.2l0,0c-1.3-1.1-2.6-2.3-4-3.3c-44.9-36.4-95.6-61.5-150.3-79.5
		c-21.6-7.1-43.8-12.2-65.9-17.4c-23.8-4.2-47.7-8.2-71.9-10.1C696.3,192.4,683.1,191.5,670,190.8z"/>
	<path class="st0" d="M781.6,203.3c-0.2,0-0.3,0.1-0.4,0.1C781.3,203.4,781.4,203.3,781.6,203.3z"/>
	<path class="st0" d="M94.7,436.6c-7.4-3.4-12.6-8.8-16.8-15C82.1,427.9,87.2,433.3,94.7,436.6z"/>
	<path class="st0" d="M782.3,203.2c-0.1,0-0.3,0.1-0.4,0.1C782,203.3,782.2,203.2,782.3,203.2z"/>
	<path class="st0" d="M659.4,189.6C659.4,189.6,659.4,189.5,659.4,189.6c-14.5-0.1-28.9-0.1-43.4-0.1c0-0.3,0-0.5,0-0.8H616
		c0,0.3,0,0.6,0,0.9C630.4,189.6,644.9,189.6,659.4,189.6c1.6,0.2,3.1,0.1,4.7,0.1C662.6,189.6,661,189.7,659.4,189.6z"/>
	<path class="st0" d="M799.3,388.8c11.3-0.2,22.6-0.8,33.9-1c-2.4,1.1-4.6,2.7-6.5,4.7c1.9-2,4.1-3.5,6.4-4.6
		c4.7-0.1,9.5-0.1,14.2,0.1c48.9-0.8,97.7,0.6,146.5,4.5c16.9,1.4,33.7,3.2,50.6,4.8c-1.4,0.7-2.8,1.5-4.2,2.2
		c-16.3,3-30.2,10-40.5,23.5c-6.2,8-8.9,17.2-8.7,26.1c-0.2-8.9,2.6-17.9,8.7-26c10.2-13.5,24.2-20.4,40.5-23.5
		c1.5-0.1,2.8-0.1,4.3-0.1c2.1,0,4.3,0.1,6.4,0.2c0.2,0,0.3,0,0.5,0c2,0.1,4,0.3,5.8,0.6c0.3,0.1,0.5,0.1,0.7,0.1
		c11.4,3.2,19.2,9.9,23.9,18.1c-4.7-8.2-12.4-14.9-23.9-18.3c1-0.3,2.2-0.7,3.2-1c15.3,1.4,30.6,3.7,45.6,6.2
		c5.9,0.9,12.1,0.7,17.6,3.7c8.7,15,15.5,30.9,21,47.4c5.9,17.9,5.8,36.1,4.3,54.6c-2.7,31.1-6.2,62.1-14.5,92.4
		c-8.6,31-25.2,52.7-49.5,65.9c24.5-13.1,41.2-34.9,49.9-66c8.3-30.2,11.8-61.2,14.5-92.4c1.6-18.5,1.7-36.6-4.3-54.6
		c-5.5-16.5-12.4-32.2-21-47.4c7.9-1,15.3,1.7,23.1,3c-0.1-0.1-0.1-0.1-0.2-0.2c-7.6-1.4-15.1-4.1-23.2-3
		c-5.5-2.9-11.7-2.7-17.6-3.7c-15.1-2.4-30.4-4.7-45.7-6c-1-0.3-2.2-0.5-3.2-0.7c-4.4-0.9-8.9-1.3-13.4-1.3c-0.1,0-0.1,0-0.2,0
		c-16.9-1.7-33.7-3.4-50.6-4.8c-48.8-3.8-97.6-5.2-146.5-4.5c-4.7-0.2-9.5-0.2-14.2-0.1c-11.3,0.2-22.6,0.8-33.9,1
		c-1.5,0-2.7,0.6-3.9,1.4c-5.8-2.5-12-1-18-0.9c-1.7,0-3.3,0.4-5,0.6c-6.9,2.2-10.8,6.4-10.8,14.1c0,2.6-1.7,5.1-1.7,7.9
		c0.1-2.7,1.7-5.2,1.7-7.7c0-7.7,4.1-11.9,10.8-14c-4.3,7.6-9.1,14.9-12.5,22.9c0-0.1,0-0.1,0-0.2c-2.8,7.8-2.4,16.2-3,24.2
		c-1.6,18.5-2.5,36.9-3.7,55.5c0.1,0.1,0.1,0.1,0.2,0.2c1.3-18.6,2.1-37.1,3.7-55.6c0.7-8,0.2-16.4,3-24.2c3.4-8,8.2-15.3,12.5-22.9
		c1.7-0.2,3.3-0.6,5-0.6c6-0.1,12.1-1.6,17.9,0.9c0,0,0-0.1,0.1-0.1C796.6,389.4,797.9,388.8,799.3,388.8z"/>
	<path class="st0" d="M779.1,201.4c0.5,0.1,1.1,0.2,1.8,0.3C780.3,201.6,779.7,201.5,779.1,201.4z"/>
	<path class="st0" d="M666.5,190c-0.7-0.1-1.6-0.2-2.4-0.2C665,189.7,665.7,189.9,666.5,190z"/>
	<path class="st0" d="M666.5,190c0.7,0.1,1.6,0.4,2.3,0.7l0,0C668.1,190.3,667.3,190.1,666.5,190z"/>
	<path class="st0" d="M851.6,684.6c-4.1-0.8-7.6-2.4-10.8-4.8c-44.2-32.3-71-75.7-80.5-129.3c-0.5-2.9-0.9-5.8-1.4-8.7
		c0.4,2.9,0.8,5.8,1.4,8.8c9.5,53.6,36.3,97,80.5,129.3c3.3,2.4,6.9,4,10.8,4.8c18.3,4,36.8,5.1,55.4,4.5c-0.2,0-0.5-0.1-0.7-0.1
		C887.9,689.6,869.6,688.5,851.6,684.6z"/>
	<path class="st0" d="M1117.4,779.1c-0.1-1.4-0.3-2.8-0.5-4.2l0,0c-0.1-0.5-0.2-0.9-0.3-1.4c0,0.1,0,0.2,0,0.4
		c0.1,0.3,0.1,0.7,0.2,1C1117.1,776.4,1117.2,777.8,1117.4,779.1c0.2,3.4,0,6.8-0.1,10.1c-0.1,1.3-0.1,2.5-0.1,3.9v0.1
		c0.1,0.1,0.1,0.3,0.1,0.5v0.1c0-1.6,0-3.1,0.1-4.7C1117.5,785.7,1117.7,782.4,1117.4,779.1z"/>
	<path class="st0" d="M781.3,201.8c0.1,0,0.1,0,0.2,0.1C781.4,202,781.4,201.8,781.3,201.8z"/>
	<path class="st0" d="M782.3,202.7c0.1,0.1,0.1,0.2,0.1,0.3C782.5,202.9,782.4,202.8,782.3,202.7z"/>
	<path class="st0" d="M285.1,303.4c11.9-13,25.1-24.4,39.6-34.4c36.4-25.2,77-41.2,119.3-53.1c14.6-4.2,29.3-7.6,43.9-11.4
		c17.2-3.3,34.6-5.2,52-7.2c12.3-1.5,24.8-2.1,37.1-4.6c22.8-1.9,45.8-2.3,68.7-2.3c-22.9-0.1-45.9,0.4-68.8,2.3c0,0-0.1,0-0.1-0.1
		c-12.2,2.5-24.6,3.2-37,4.6c-17.4,2.1-34.8,4-52,7.2c-0.4-0.2-1.8-0.4-1.6-0.8c-0.6,0.4,0.9,0.7,1.5,0.9
		c-14.7,3.8-29.4,7.3-43.9,11.4c-42.2,12-82.9,27.8-119.3,53.1c-14.4,10-27.7,21.4-39.6,34.4c-0.8,0.8-2.1,1.5-1.6,3.3
		c0.1,0,0.1,0,0.2,0C283.1,304.9,284.4,304.3,285.1,303.4z"/>
	<path class="st0" d="M112.2,526.6c1.6,17.2,3.4,34.3,6.5,51.2C115.6,561,113.7,543.8,112.2,526.6z"/>
	<path class="st0" d="M640.6,727.9c-0.3-4.3-0.7-8.7-0.8-12.9c0-2.6-0.9-3.2-2.9-3c1.9-0.2,2.7,0.5,2.8,3
		C639.7,719.2,640.1,723.6,640.6,727.9L640.6,727.9c1.3,11,3.1,21.9,3,33C643.7,749.8,641.8,738.8,640.6,727.9z"/>
	<path class="st0" d="M1071.2,477.9c7.5-7,12.9-16.6,15.1-27.5C1084.2,461.4,1078.7,471,1071.2,477.9z"/>
	<path class="st0" d="M1153.4,394.1c-1,5.9-0.4,11.9-0.8,17.7c-2,0-3.1,1.3-4.7,0.2c1.4,2.9,2.8,5.8,4.7,9.6
		c1.6-4.1,0.8-6.8,0.2-9.6c0.4-5.9-0.3-11.9,0.8-17.7c0.4-2.3-0.2-4-1.9-4.8C1153.4,390.4,1153.9,392,1153.4,394.1z"/>
	<path class="st0" d="M269.6,243.3c0.4,0.5,0.8,1,1.1,1.7l0,0C270.4,244.3,270,243.7,269.6,243.3z"/>
	<path class="st0" d="M1086.5,449.7c0,0.2-0.1,0.4-0.1,0.7C1086.4,450.2,1086.5,449.9,1086.5,449.7z"/>
	<path class="st0" d="M1117.5,842.4c0-0.7,0-1.4,0-2.1c0-0.3,0-0.5,0-0.8c-0.1-1.6-0.1-3.1-0.1-4.7c0-1.3,0-2.4,0-3.7
		c0-0.1,0-0.1,0-0.2c-0.1,0.2-0.2,0.4-0.3,0.6c0.1-0.1,0.1-0.3,0.2-0.4c0,1.3,0,2.4,0,3.7c0.1,1.6,0.1,3.1,0.1,4.7
		c0,0.3,0,0.5,0,0.8c0,0.6,0,1.4,0,2.2v0.1c0,13.2,0,26.5,0,39.8c0.1,0,0.1,0,0.2,0C1117.7,869.2,1117.7,855.8,1117.5,842.4
		C1117.7,842.5,1117.7,842.5,1117.5,842.4L1117.5,842.4z"/>
	<path class="st0" d="M569.1,373.4c-0.2-12.2-0.8-24.3-0.8-36.5c0-4.8-1.5-6.5-6.5-6.7c-28.8-1.3-57.6-2.7-86.5-3.2
		c-4.7-0.1-8.8-1.3-12.8-3.5c-19.5-11-39.8-18.1-60.8-22.2c20.9,4.1,41.1,11.3,60.6,22.2c4.1,2.3,8.2,3.4,12.8,3.5
		c28.8,0.5,57.7,2,86.5,3.2c5.1,0.2,6.5,1.8,6.5,6.7c0,12.2,0.6,24.3,0.8,36.5c0,2.9,0.7,4.2,2.7,4.2
		C569.7,377.5,569.1,376.2,569.1,373.4z"/>
	<path class="st0" d="M538.7,469c-0.6-9-0.7-18-3.4-26.7c0.5-0.6,0.8-1.4,1-2.1c0.3-1,0.3-2.2,0.2-3.3c-1-13.8-2.1-27.5-3.2-41.3
		c-0.2-2.7-1.1-5.2-4.4-5.5c-5.6-0.4-11.4-0.6-17-0.9c-0.5,0-0.9,0.1-1.4,0.4c-0.2,0.2-0.4,0.3-0.5,0.5c0.1-0.2,0.3-0.3,0.4-0.4
		c0.4-0.3,0.8-0.4,1.4-0.4c5.6,0.2,11.4,0.5,17,0.9c3.2,0.2,4.2,2.8,4.4,5.5c1.1,13.8,2.2,27.5,3.2,41.3c0.1,1.1,0.1,2.3-0.2,3.3
		c-0.2,0.7-0.5,1.5-1,2c-6.2-18.4-14.8-35.5-25.8-51.4l0.1-0.1c-1.8-1.8-4-1.8-6.3-1.9c-71.6-2.5-143.1-1.8-214.4,4.2
		c-20.5,1.8-41.1,4.2-61.6,6.3l-10.8,1.6l-2,0.3l-37,5.3l-22.5,3.2c-2.7,0.3-4.8,0.6-6.8,0.9l-7.7,1.1c-0.3-5.8-0.6-11.8-0.9-17.6
		v0.1c0.3,5.8,0.6,11.8,0.9,17.6c-1.8,9.8,0.2,19.5,0.3,29.3c4-10.4,9.2-21.5,14.1-31.4l22.5-3.2c-0.1,0.3-0.2,0.7-0.2,1.3
		c-0.4,0.7-0.7,1.6-1.1,2.3c-44.6,77.5-34.1,180.3,20.7,250.1c2.9,3.8,6.3,6.8,10.6,8.9c29.8,14.4,61.9,17.4,94.2,19.1l0,0
		c-32.2-1.7-64.4-4.7-94.1-19.1c-4.3-2.1-7.7-5.1-10.6-8.9c-54.9-69.9-65.3-172.7-20.7-250.1c0.4-0.7,0.7-1.6,1.1-2.3
		c0-0.4,0.1-0.8,0.2-1.3l37-5.3l2-0.3v0.1l10.7-1.6c20.5-2.1,41.1-4.5,61.6-6.3c71.3-5.9,142.9-6.7,214.4-4.2
		c2.3,0.1,4.5,0.1,6.3,1.9c11,16,19.6,33.1,25.8,51.4C537.9,451,537.9,460.1,538.7,469c1.5,23.8,2.5,47.5,1.8,71.3
		c-0.4,4.7-0.7,9.3-1.3,14c-3.4,29.5-15.1,54.7-31.6,77.2c16.6-22.6,28.3-47.8,31.7-77.4c0.5-4.6,0.8-9.3,1.3-14
		c0-0.1,0.1-0.1,0.1-0.2C541.3,516.2,540.2,492.6,538.7,469z M140.2,411.9l7.7-1.1C145.5,411.2,143.4,411.6,140.2,411.9z"/>
	<path class="st0" d="M1082.4,419.4c0.1,0.1,0.2,0.3,0.2,0.4C1082.5,419.7,1082.4,419.6,1082.4,419.4z"/>
	<path class="st0" d="M646.6,367.9c24.2-0.1,48.4,2.8,72.7,9c0.9,0.2,1.7,0.3,2.3,0.3c-0.5,0-1.3-0.1-2.1-0.3
		C695.2,370.7,670.9,367.8,646.6,367.9z"/>
	<path class="st0" d="M107.8,444.4c0.1-3.7-1.7-5.5-5.6-5.5c-1.3,0-2.5-0.3-3.8-0.7c1.3,0.4,2.5,0.7,3.8,0.7
		C106.1,438.9,107.9,440.8,107.8,444.4z"/>
	<path class="st0" d="M547.2,712.2c-0.8-0.8-1.6-1.7-2.4-2.6l0,0l0,0C545.5,710.4,546.4,711.4,547.2,712.2
		C547.1,712.1,547.2,712.2,547.2,712.2z"/>
	<path class="st0" d="M108.7,474.4c0,0.1,0,0.2,0,0.2l0,0C108.7,474.5,108.7,474.4,108.7,474.4z"/>
	<path class="st0" d="M383.4,317.8c-0.6-0.2-1.4-0.4-2-0.5c-38.5-3.7-75.8,1-112,14c-0.5,0.2-1,0.2-1.6,0.4c0.4-0.1,0.9-0.2,1.4-0.3
		c36.3-12.9,73.7-17.7,112.1-14c0.6,0.1,1.4,0.3,2,0.5c-13.8,2.8-27.6,5.7-41.5,8.7c0,0.3,0.1,0.6,0.1,0.9c0-0.3,0-0.6-0.1-0.9
		c13.8-2.8,27.6-5.7,41.5-8.7c12.2,0.7,24,3.8,35.6,8.1c0.1,0,0.2,0,0.3,0C407.4,321.7,395.7,318.7,383.4,317.8z"/>
	<path class="st0" d="M533.4,374.9c1.4,27.4,4.1,54.9,5.6,82.3C537.5,429.6,534.9,402.3,533.4,374.9z"/>
	<path class="st0" d="M229.2,320.1c7,5.9,9.3,5.9,16.6,0.4c1.5-1.1,2.6-2.7,3.9-4.2c5.1-6.2,10.2-12.4,15.3-18.5
		c1.7-2,2.8-3.2,3.1-4.3c-0.4,0.9-1.5,2.2-3,4.1c-5.2,6.2-10.2,12.3-15.3,18.5c-1.3,1.5-2.4,3-3.9,4.2c-7.3,5.5-9.6,5.6-16.6-0.4
		c-19.7-17-32.1-38.2-35.2-64.1c-1.7-13.8,0.5-26.9,9.5-38.2c0-0.1,0-0.1-0.1-0.2l0,0c-9.1,11.3-11.3,24.5-9.6,38.3
		C197.2,281.7,209.6,302.9,229.2,320.1z"/>
	<path class="st0" d="M753.6,691.4L753.6,691.4L753.6,691.4L753.6,691.4z"/>
	<path class="st0" d="M267.5,331.8c0.1,0,0.1-0.1,0.2-0.1C267.6,331.8,267.5,331.8,267.5,331.8z"/>
	<path class="st0" d="M301.1,263.2c-5.9,4.8-11.6,9.9-17.3,14.9c-3,2.6-3.9,3.5-4.8,2c0.9,1.7,1.9,0.8,4.9-1.9
		C289.6,273.1,295.2,268,301.1,263.2c6.3-4.8,8.9-6.9,8.3-9.8C309.8,256.2,307.1,258.3,301.1,263.2z"/>
	<path class="st0" d="M276.7,244.7c1.1,1.7,2.2,3.5,3.4,5.1c3.4,4.2,7.3,6.6,11,6.6c-3.7-0.1-7.5-2.5-10.8-6.6
		C278.9,248.3,277.9,246.4,276.7,244.7c-0.8-1.4-0.8-3.9-2.9-3.8l0,0C275.7,241,275.7,243.4,276.7,244.7z"/>
	<path class="st0" d="M304.2,245.6c-0.4-0.5-0.8-1-1.3-1.6l0,0l0,0C303.4,244.5,303.8,245,304.2,245.6z"/>
	<path class="st0" d="M592.8,729.3c-0.1-1.3-0.3-2.1-1-2.5c0.5,0.4,0.7,1.1,0.8,2.3c0.3,6.8,0.7,13.7,1,20.4
		c0.1,0.4,0.1,0.9,0.1,1.4c-0.4,0.4-0.7,1-1.1,1.4c0.5-0.3,0.9-0.9,1.4-1.6c0-0.3-0.1-0.7-0.1-1C593.4,743,593.1,736.1,592.8,729.3z
		"/>
	<path class="st0" d="M523.9,707.6c3.9-3.8,7.4-7.8,10.7-12.1c0.4-0.5,0.7-1.6,1.3-2.2c-0.6,0.6-1,1.9-1.6,2.5
		C531,700,527.5,703.9,523.9,707.6z"/>
	<path class="st0" d="M1116.8,742.8c0.9,15.6,0.6,31.3,1.4,46.8c1.1,24.3,0.2,48.7,1.3,72.9c0.7,16.2,0.2,32.2,0.8,48.4
		c1.5,37,1.4,74.2,2.4,111.3c0.9,32.6,0.9,65.2,0.5,97.8c-0.2,21.7-0.7,43.3-1.9,65c-0.5,9.3-1.5,18.6-2.7,27.8
		c0.1,0.5,0.1,1.1,0.2,1.7c1.3-9.7,2.3-19.3,2.8-29c1.1-21.6,1.6-43.3,1.9-65c0.3-32.5,0.4-65.2-0.5-97.8c-1.1-37-1-74.2-2.4-111.3
		c-0.6-16.2-0.1-32.2-0.8-48.4c-1-24.3-0.1-48.6-1.3-72.9c-0.8-15.6-0.5-31.3-1.4-46.8c-0.3-6.8-0.8-13.5-0.8-20.2
		c0-1.4-0.1-2.7-0.8-3.7c0.5,0.9,0.5,2.1,0.5,3.1C1116,729.3,1116.4,736,1116.8,742.8z"/>
	<path class="st0" d="M226.8,487.2c7.2-0.2,13.5,5.9,13.5,13l0,0C240.2,493.1,234,487,226.8,487.2c-7.1,0.1-12.9,5.9-12.9,12.9
		c0,0,0,0,0,0.1C213.9,493.2,219.7,487.3,226.8,487.2z"/>
	<path class="st0" d="M214.9,505.4c-0.6-1.5-0.9-3-1-4.8C213.9,502.2,214.3,503.9,214.9,505.4z"/>
	<path class="st0" d="M247.9,468.8c-16.5,0.3-30.4,6.4-41.6,17.5c11.3-11.2,25.1-17.1,41.5-17.4c22.8-0.4,39.1,15.4,40.4,38.9
		c0.1,1.6,0,3.1,0,4.7c-0.1,12.5-3.3,24.3-10.2,34.9c-2.6,4.1-5.5,7.5-8.9,10.4c3.3-2.9,6.3-6.5,9-10.5
		c6.9-10.6,10.1-22.3,10.2-34.9c0-1.6,0-3.1,0-4.7C287,484.2,270.7,468.3,247.9,468.8z"/>
	<path class="st1" d="M158,699.1L158,699.1c-0.6,2.4-1.1,4.1-1.7,5.6c-0.1,0.4-0.2,0.8-0.3,1.3c-1.4,22.7-3,45.4-4.2,68.1
		c-2.7,57.3-3.9,114.6-4.1,171.9c-0.4,91.6,1.8,183.1,2.5,274.6c0,5.8,2.8,9,7.7,11c1,0,2.1,0,3.1,0c4-2,7.1-4.6,7.5-9.4
		c-0.5-49.3-1.1-98.7-1.7-148c0-1.9-0.3-3.7-0.4-5.5l0,0c0,13.8,0,27.5,0,41.3l0,0c-0.3,0.1-0.6,0.1-0.9,0.1
		c-0.1-1.1-0.3-2.4-0.3-3.5l0,0c0-19.2,0-38.5,0-57.7c0-2.1-0.2-4.2,0.9-6l0,0c0-14.2,0-28.5,0-42.7c-0.3-84.9,0.7-169.8,5.5-254.6
		c0.5-10,1.3-20.1,1.9-30.1C168.9,709.7,162.5,705.7,158,699.1z M164.7,1036.5c-0.2,0-0.3-29.2-0.3-65.2s0.1-65.2,0.3-65.2
		s0.3,29.2,0.3,65.2S164.9,1036.5,164.7,1036.5z"/>
	<path class="st2" d="M1119.2,1228c-0.9-0.9-1.6-2.2-2-3.8c-1-2.3-3-2.3-5.2-2.3c-153.2,0-306.4,0.1-459.8,0.1
		c-157.9,0-315.8,0-473.9,0c-2.5,0-5,0-7.5,0.1c-0.7,0-1.6,0-2.3,0c-0.4,4.8-3.5,7.4-7.5,9.4c321.2,0,642.3,0,963.5,0
		C1122.6,1230.5,1120.6,1229.6,1119.2,1228z"/>
	<path class="st1" d="M1114.8,718.5c0.3,0.3,0.5,0.5,0.6,0.9c0.7,1,0.8,2.3,0.8,3.7c0,6.8,0.5,13.5,0.8,20.2
		c0.8,15.5,0.5,31.2,1.4,46.8c1.1,24.3,0.2,48.6,1.3,72.9c0.7,16.2,0.2,32.2,0.8,48.4c1.4,37.1,1.3,74.3,2.4,111.3
		c0.9,32.6,0.8,65.3,0.5,97.8c-0.3,21.7-0.7,43.4-1.9,65c-0.5,9.7-1.6,19.3-2.8,29c-0.1-0.5-0.1-1.1-0.2-1.7c0,0.4-0.1,0.8-0.1,1.1
		c-0.1-1.3-0.2-2.5-0.3-3.8c-0.6,3.2-0.8,6.5-0.8,9.8c0,1.4,0,2.6,0.1,4c0-0.1-0.1-0.1-0.1-0.2c0,0.2,0,0.3,0,0.5
		c0.3,1.5,1,2.7,1.9,3.7c1.5,1.6,3.3,2.6,5.3,3.5c0.1,0,0.1,0.1,0.2,0.1c1,0,2.1,0,3.1,0c3.8-2,7.1-4.3,7.4-9.1
		c0.5-7.8,1.5-15.5,1.9-23.4c2.7-51.3,3.4-102.7,2.7-154.2c-1.4-94.8-3.1-189.6-5.7-284.4c-0.5-18.6-1.1-37.1-3-55.7
		c-0.1,0-0.1,0.1-0.2,0.1c0,0,0,0,0,0.1C1125.6,709.6,1120.2,714,1114.8,718.5z"/>
	<path class="st3" d="M1184.6,471.1c-0.1,0.3-0.1,0.7-0.2,1C1184.5,471.7,1184.5,471.4,1184.6,471.1z"/>
	<path class="st3" d="M1184.2,472.6c0-0.1,0.1-0.2,0.1-0.2v-0.1C1184.2,472.4,1184.2,472.5,1184.2,472.6z"/>
	<path class="st0" d="M1065.6,281c0.2,0.1,0.4,0.2,0.6,0.3"/>
	<path class="st3" d="M147.9,410.8l-7.7,1.1C143.4,411.6,145.5,411.2,147.9,410.8z"/>
	<path class="st3" d="M1078.8,712.9c18.8-6.2,35.7-15.5,49.8-29.5c15-15,24.8-33.4,32.1-53.1c10.1-27.7,15-56.6,18.1-85.9
		c1.4-12.7,2.8-25.6,3-38.4c0-1.6,0.2-3.1,1.1-4.5c1.4-9.6,0.8-19.3,1-29c-1-10,1.8-20,1.1-30.1c-0.1-2.4,1.7-3,3.8-3.4
		c17.4-3,33.6-21.5,34.6-39.4c0.1-2.2-0.2-4.6,1.1-6.6c2-8.2,0.2-16.2-2-24.1c-0.9-3.7-2.9-5.2-6.7-5.9c-32-6.5-64-12.3-96.4-17.2
		c-10.1-1.6-20.3-2.7-30.4-4.4c-7.5-1.3-8.2-3.2-4.2-9.1c14.6-21,26.5-43.1,29.6-69.2c3.7-29.4-14.5-59-42.6-66.8
		c-28-7.7-53.6-1.5-76.6,16.1c-12.9,9.9-23.3,22.4-32.8,35.6c-2.1,2.8-3.5,3.8-7,1.7c-25.7-15.3-52.8-27.8-80.8-38.3
		c-74.7-27.7-152.2-38.5-231.3-39.5c-42.5-0.5-84.6,4.1-126.6,9.9c-66.1,9.2-129,28.1-187.1,61.7c-2.7,1.6-4,1.5-5.7-1.3
		c-5.1-7.8-10.5-15.5-16.7-22.6c-19.5-22.5-43.2-36.3-74-34.9c-40.7,1.8-56.4,30-58.1,57.6c-2.2,36.2,13.4,65.2,39,89.5
		c4.8,4.6,4.6,5.9-1.7,8.1c-1.1,0.4-2.4,0.6-3.5,0.7c-12.2,1.8-24.4,3.4-36.6,5.2c-32.2,4.8-64.4,10.6-96.4,17.3
		c-1.8,0.4-4.2,0-5,2.2c-3.5,9.3-6.2,18.7-3.3,28.8l0,0l0,0c1.8,5.7,1.6,11.9,4.3,17.5c1.8,3.4,3.5,6.9,5.6,10
		c4.2,6.3,9.4,11.7,16.8,15l0,0c1.1,0.5,2.4,1,3.7,1.5s2.5,0.7,3.8,0.7c4,0,5.7,1.9,5.6,5.5c0,0.2,0,0.5,0,0.7
		c-0.6,9.8,2.2,19.6,0.9,29.5l0,0l0,0c0.2,9.3-0.3,18.7,1,27.8l0,0c2.4,6.8,1.5,14.1,2.1,21.1c0.1,1,0.2,2.1,0.3,3.1
		c1.6,17.2,3.4,34.3,6.5,51.2c1.9,10.7,4.2,21.4,7.1,31.9c6.8,24.9,16.7,48.6,34,68.4c13.9,15.9,31.2,26.5,50.8,33.4
		c21,7.3,42.7,10.8,64.7,13.1c42.9,4.6,85.7,3.1,128.6,2.7c27.1-0.2,53.8-4.6,79.2-15.5c35.6-15.3,58.9-41.9,72.6-77.6
		c11.2-29.3,15.7-60,16.4-91.3c0-0.3,0-0.6,0-0.9c0-0.7,0-1.4,0-2.1c0-1.8,0.1-3.4,1-5.1l0,0v-0.1v-0.1c0.1-9,0.2-17.9,0.3-26.8
		c0.1-26.9-0.5-53.7-1.9-80.6c-0.2-4-0.4-6.6-0.4-8.3c0-4.6,1.6-3.9,10.7-6.2c44.3-11,88.7-11.1,133,0.3c5.6,1.5,7,1.8,7.1,5.4
		c0.1,1.1,0,2.6-0.1,4.6c-1.5,28.2-2.2,56.3-2.1,84.5c0,9.4,0.1,18.8,0.3,28.2v0.1c0,0.1,0,0.1,0,0.2s0.1,0.1,0.1,0.2
		c0-0.1,0-0.1,0-0.2c1.6,2.7,0.9,5.7,1,8.7c0.7,31.3,5.4,61.9,16.9,91.2c18.4,47.1,53.2,75,102.2,85.9c19.4,4.3,39.1,5.8,58.9,5.9
		c15.7,0.1,31.5,0.3,47.1,0.3c9.5,0,18.9-0.1,28.4-0.4C1009.8,726.6,1045,724,1078.8,712.9z M977.2,259.6
		c10.1-13,19.9-26.2,33.9-35.5c0.1-0.1,0.2-0.1,0.3-0.2c0,0,0,0-0.1,0c15.2-10.7,32-14.7,50.4-11.7c19.3,3.2,33.4,18.9,35,38.6
		c1,12.5-1.9,24.2-6.6,35.6c-4.6,11.2-10.1,21.7-17.5,31.3l0,0c-0.1,0.1-0.1,0.2-0.2,0.2c-5.7,10.1-5.4,9.2-15.7,5.4
		c-12.6-4.5-21-13.8-30.1-22.3c-1-0.9-1.5-1.7-1.5-2.4c0-0.7,0.6-1.3,2-1.8c2.1-0.8,4.1-1.8,6.2-2.7c-0.3-1.3,0.1-1.8,0.6-2
		c0.2-0.1,0.3-0.1,0.5-0.1s0.4,0,0.6,0c0.3,0,0.6,0,0.8,0s0.3,0,0.4-0.1c7.8-2.1,15.9-0.9,23.9-1.1c3.1-0.1,6.3,0,9.4-0.1
		c2.5-0.1,5.3-0.3,5.5-3.4c0.1-3.2-2.7-3.7-5.2-3.8c-1.4-0.1-2.7,0-4.2-0.8c2.7-0.2,5.4-0.3,8.1-0.4c-2.3-1.7-5.1-0.5-7.6-1h-0.1
		c0.1,0,0.1,0.1,0.2,0.1c-10.5,0.1-21.1-0.7-32.6,1.1c0,0,0-0.1,0.1-0.1c-0.1,0-0.1,0-0.2,0c3.1-6.2,5.8-11.5,8.7-16.8
		c2.1-6.4,4.3-12.7,6.4-19.1c1.4-4,0.7-7.5-3.7-8.7c-3.2-0.8-5.1,0.4-6.4,2.7c-0.4,0.7-0.7,1.6-0.9,2.5c-2.7,9.3-5.7,18.5-11,26.7
		l0,0c0,0,0,0,0,0.1c0,0,0,0,0.1,0.1c-2.5,6.5-6.8,12-10.7,17.6c-0.7,0.9-1.4,1.5-2,1.5c-0.6,0.1-1.4-0.3-2.3-1
		c-2-1.7-4-3.2-5.9-4.9c-7-5.5-14.2-11-21.6-16c-1.9-1.4-3.9-2.6-5.8-3.9c-0.7-0.5-1.6-1-1.7-1.8l0,0
		C976.4,261,976.5,260.4,977.2,259.6z M1029.7,333.4c-0.7,0.5-1.5,0.6-2.2,0.6s-1.6-0.2-2.2-0.3l0,0c-13.8-1.4-27.5-2.4-41.3-3.3
		c-0.4,0-0.9-0.1-1.4-0.1c-13.8-0.9-27.6-1.7-41.4-2.3c-1,0-2.1-0.3-3.1-0.3c0.1,0,0.1,0,0.2-0.1c-0.1,0-0.1,0-0.2,0
		c-15.4,0-30.9,0-46.3,0c0-1.7,0.4-2.3,0.9-2.5c0.3-0.2,0.6-0.2,0.9-0.3c23.8-6,48-7.3,72.4-5.3c0.6,0.1,2.1,0.1,2.8,0.1
		c0,0.1-0.1,0.1-0.2,0.1c-0.1,0-0.2,0.1-0.3,0.1c0.2,0,0.3,0.1,0.4,0.1h-0.1c0.7,0,1.7,0.1,2.5,0.2c2.9,0.2,6.5,0.7,9.1,1
		c6,0.8,12.1,1.8,18,2.9c8,1.6,15.9,3.5,23.7,5.9c2,0.6,3.9,1.3,5.8,2c0.5,0.2,1.3,0.2,1.7,0.7
		C1029.6,332.9,1029.7,333.1,1029.7,333.4L1029.7,333.4L1029.7,333.4z M193.9,255.8c-1.7-13.8,0.5-27,9.6-38.3l0,0c0,0,0,0,0-0.1
		c6.4-10.1,16.7-13,27.6-14.2c16.8-1.8,32,2.5,45.7,12.5c10.5,7.7,19.1,17.2,26.1,28.2c0,0,0,0,0,0.1l0,0c0.4,0.5,0.9,1,1.3,1.6
		c3.1,3.7,4.9,5.9,5.2,7.9c0.5,2.9-2.1,5-8.2,9.9c-5.9,4.7-11.6,9.8-17.3,14.9c-3,2.7-4,3.5-4.9,1.9c-0.4-0.7-0.8-2-1.5-3.8
		c-3.3-10.2-5.3-20.8-6.8-31.4l0,0c-0.3-0.6-0.7-1.1-1.1-1.7c-0.5-0.6-1-1.1-1.7-1.5c-1.3-0.8-2.8-1-4.7-0.3
		c-1.1,0.4-1.9,0.9-2.5,1.6c-1.3,1.6-1.6,3.7-1.4,5.9c0,0,0,0,0,0.1l0,0c0.8,4.1,1.7,8,2.5,12.2c0.4,2.2,0.9,4.5,1.4,6.8
		c0.4,1.9,0.8,3.8,1.1,5.7c-6.4-3.4-12.1-6.6-17.9-9.6c-3.8-1.7-7.5-3.2-11.2-5.2c-4.5-2.4-8-1.9-10.6,2.7c0,4,2.6,6,5.9,7.6
		c11.6,5.5,23.4,10.6,33.5,18.8c3.5,2.8,4.8,3.9,4,5.6c-0.4,1-1.5,2.2-3.1,4.3c-5.1,6-10.2,12.3-15.3,18.5c-1.3,1.5-2.4,3-3.9,4.2
		c-7.3,5.5-9.6,5.5-16.6-0.4C209.6,302.9,197.2,281.7,193.9,255.8z M419,326.2c-20.9,0.4-41.8,0.9-62.7,1.4
		c-14.4,0.8-28.7,1.6-43.1,2.6c-14.6,1-29.1,2.3-43.6,3.4c-1.1,0.1-2.3,0-3.7,0c0.2-1,0.7-1.5,1.5-1.8c0.1,0,0.1-0.1,0.2-0.1h0.1
		c0.5-0.2,1-0.2,1.6-0.4c36.2-12.9,73.5-17.6,112-14c0.6,0.1,1.4,0.3,2,0.5c12.3,0.8,24.1,3.9,35.8,8.2c-0.1,0-0.2,0-0.3,0
		C418.8,326.1,418.9,326.2,419,326.2z M541.3,538.7c-0.1,0.4-0.3,0.8-0.6,1.3c0,0,0,0,0-0.1c0,0.1-0.1,0.1-0.1,0.2
		c-0.4,4.7-0.7,9.4-1.3,14c-3.4,29.6-15.1,54.9-31.7,77.4c-7.5,10.3-16.1,20-25.3,29.5c-16.7,17.1-36.8,25.6-60.2,27.1
		c-39.1,2.5-78.4,1.9-117.7,0.7c-0.9,0-1.8-0.3-2.6-0.4c-0.2-0.1-0.4-0.2-0.5-0.2c-32.3-1.7-64.4-4.7-94.2-19.1
		c-4.4-2.1-7.7-5.1-10.6-8.9c-54.8-69.8-65.3-172.6-20.7-250.1c0.4-0.7,0.7-1.6,1.1-2.3c0-0.5,0.1-0.9,0.2-1.3l-22.5,3.2
		c-4.9,9.9-10.1,21-14.1,31.4c-0.1-9.8-2.1-19.5-0.3-29.3c-0.3-5.8-0.6-11.8-0.9-17.6v-0.1l0,0c-0.2-3.4,1.4-4.8,4.8-5.4
		c36.4-6.2,73-11.5,109.8-15.3c23.5-2.4,46.9-4.1,70.5-5.6c47.9-3.2,95.9-3.2,143.7-2.8c20,0.2,39.9,1.4,59.9,2
		c3.8,0.1,5.1,1.8,5.3,5.4c0,0.8,0.1,1.7,0.1,2.5c1.5,27.4,4.1,54.9,5.6,82.3c0.3,5,0.5,10,0.7,15c0.8,20.3,2.2,40.6,1.9,60.8
		C541.8,534.9,542,536.9,541.3,538.7z M731.1,330.2c-4.9,0.2-6,1.9-6,6.5c0,12.2-0.6,24.3-0.8,36.5c-0.1,2.7-0.6,4-2.6,4
		c-0.6,0-1.4-0.1-2.3-0.3c-24.2-6-48.4-9.1-72.7-9c-24.2,0.1-48.5,3.2-72.6,9.4c-0.9,0.2-1.8,0.3-2.4,0.3c-2.1,0-2.7-1.3-2.7-4.2
		c-0.2-12.2-0.8-24.3-0.8-36.5c0-4.9-1.4-6.5-6.5-6.7c-28.8-1.3-57.7-2.7-86.5-3.2c-4.6-0.1-8.8-1.3-12.8-3.5
		c-19.4-11-39.6-18.1-60.6-22.2c-20-3.9-40.8-4.9-61.9-3.5c-19,1.3-37.8,4.4-56.3,9.1l0,0c-0.1,0-0.1,0-0.2,0
		c-0.5-1.9,0.7-2.5,1.6-3.3c11.9-13,25.2-24.4,39.6-34.4c36.4-25.2,77.1-41.1,119.3-53.1c14.5-4.1,29.2-7.6,43.9-11.4
		c-0.5-0.2-2-0.5-1.5-0.9c0.1-0.1,0.4-0.3,1.1-0.5c4.6-1.3,9.4-2.3,14.2-2.9c22.3-2.9,44.5-5.6,66.9-8.3c2.9-0.3,5.8-0.6,8.7,0.8
		c-0.1,0-0.2,0-0.2,0s0.1,0,0.1,0.1c22.9-1.9,45.9-2.4,68.8-2.3c7.6,0,15.3,0.1,22.9,0.2c-0.7-0.3-1.6-0.6-2.3-0.7
		c-0.7-0.1-1.6-0.2-2.4-0.2c-1.6,0-3.1,0.1-4.7-0.1c-14.5,0-29,0-43.5,0c0-0.3,0-0.6,0-0.9h0.1v-0.1c14.5,0,29,0,43.5,0v0.1
		c40.2,1.4,80.1,4.4,119.5,12.7c0.6,0.1,1.3,0.2,1.8,0.3c0.2,0,0.3,0.1,0.4,0.1s0.1,0,0.2,0.1c0.2,0.1,0.4,0.2,0.5,0.3
		c0.2,0.2,0.3,0.3,0.3,0.4c0.1,0.1,0.1,0.2,0.1,0.3c0,0.1-0.1,0.2-0.2,0.2s-0.3,0.1-0.4,0.1s-0.2,0-0.3,0c-0.2,0-0.3,0.1-0.4,0.1
		c0,0-0.1,0-0.1,0.1c22.1,5.2,44.3,10.3,65.9,17.4c54.7,17.9,105.5,43.1,150.3,79.5c1.4,1,2.7,2.2,4,3.3l0,0c0,0,0.1,0,0.1,0.1
		c0.2,0.2,0.2,0.5,0.6,1.4c-10.2-1.6-20.2-3.3-30.2-4.3c-45.4-4.4-88.8,1.7-129.2,23.6c-2.7,1.5-5.4,2-8.2,2.1
		C799.8,327.2,765.5,328.7,731.1,330.2z M907.7,689.3c-0.2,0-0.4-0.1-0.7-0.1c-18.7,0.5-37.2-0.5-55.4-4.5c-4-0.8-7.5-2.4-10.8-4.8
		c-44.2-32.3-71-75.7-80.5-129.3c-0.5-2.9-0.9-5.8-1.4-8.8c-7.7-54.7,4.2-105.5,36.6-151.6c-5.9-2.5-12-1-17.9-0.9
		c-1.7,0-3.3,0.4-5,0.6c-4.3,7.6-9.1,14.9-12.5,22.9c-2.8,7.8-2.3,16.2-3,24.2c-1.6,18.5-2.4,37-3.7,55.6c-0.1-0.1-0.1-0.1-0.2-0.2
		v0.1c-1.3-0.9-0.6-2.3-0.6-3.4c0.5-22.2,2.1-44.4,3.9-66.5c1.3-16.5,2.5-32.9,3.3-49.3c0.2-4.7,1.8-6.3,6.5-6.5
		c46-1.8,92-2.7,138-1.8c26.4,0.5,52.8,1.8,79.1,3.7c35.6,2.5,70.9,6.3,106.2,11c20.1,2.7,40.2,6.3,60.3,9.3
		c0.8,0.1,1.6,0.3,2.2,0.6c1.7,0.8,2.3,2.5,1.9,4.8c-1.1,5.8-0.4,11.8-0.8,17.7c0.6,2.8,1.4,5.5-0.2,9.6c-1.9-3.9-3.3-6.8-4.7-9.6
		l-0.1-0.1c-7.7-1.4-15.1-4.1-23.1-3c8.6,15.1,15.4,30.9,21,47.4c5.9,17.9,5.8,36.1,4.3,54.6c-2.7,31.2-6.2,62.2-14.5,92.4
		c-8.7,31.1-25.3,52.8-49.9,66c-11.2,6-23.9,10.3-38.3,12.8c-29.6,5.2-59.2,7.4-89.2,7.5C941.4,689.7,924.5,689.4,907.7,689.3z"/>
	<path class="st3" d="M108.4,469.1c-0.1,1.9-0.3,3.8,0.3,5.5c0-0.1,0-0.2,0-0.2C108.9,472.4,108.8,470.6,108.4,469.1z"/>
	<path class="st4" d="M175.6,716c7.2,4.2,14,9.2,21.6,12.7c21.6,10.1,44.7,14.8,68.2,17.6c51.4,6.2,102.9,5.2,154.5,2.8
		c29.6-1.4,57.9-8.8,83.3-25c7.5-4.8,14.4-10.3,20.7-16.5c3.7-3.7,7.2-7.6,10.4-11.8c0.5-0.6,0.8-1.9,1.6-2.5c0.5-0.7,1.3-1,2.6-0.2
		c0.1-2.7,1.3-5,2.7-7.2c12-18,18.8-38.1,23.5-59c0.5-2.5,1.7-4.5,3.2-6.4c-2.2-1.9-0.8-4.2-0.5-6.3c2.8-16.9,4.6-33.8,5.3-50.8
		c0.4-9.5,0.5-19,0.3-28.6l0,0c-0.9,1.7-1,3.3-1,5.1c0,0.7,0,1.4,0,2.1c0,0.3,0,0.6,0,0.9c-0.6,31.3-5.2,62-16.4,91.3
		c-13.7,35.7-37,62.3-72.6,77.6c-25.3,11-52,15.3-79.2,15.5c-42.9,0.4-85.7,1.9-128.6-2.7c-22-2.3-43.7-5.8-64.7-13.1
		c-19.6-6.9-36.9-17.5-50.8-33.4c-17.3-19.8-27.2-43.5-34-68.4c-2.9-10.5-5.2-21.2-7.1-31.9c-3-17-4.9-34.1-6.5-51.2
		c-0.1-1-0.2-2.1-0.3-3.1c-0.6-7,0.3-14.3-2.1-21.1l0,0c-0.1,0.5-0.2,1-0.2,1.6c1.7,37.4,4.4,74.9,12.2,111.6
		c5.4,26,13.5,51,28.8,73.1c3.7,5.3,6.7,10.4,5.4,17.1c0.1-0.4,0.2-0.8,0.3-1.3c0.5-1.5,0.9-3.1,1.7-5.5l0,0
		c4.6,6.7,11,10.6,15.6,16.3l0,0c0.1,0.1,0.2,0.1,0.3,0.2c0-0.2,0-0.3,0-0.5C174.4,715.3,175.1,715.6,175.6,716z"/>
	<path class="st4" d="M840.1,721.8c-49-11-83.9-38.8-102.2-85.9c-11.5-29.3-16.2-59.9-16.9-91.2c-0.1-2.9,0.5-5.9-1-8.7
		c0,0.1,0,0.1,0,0.2c-0.3,9.2-0.2,18.5,0.3,27.6c0.5,9.4,1.3,18.8,2.3,28.1c0.7,7.4,2,14.7,3,22.1c0.2,1.1,0.7,2.4-0.3,3.4
		c0.1,0.1,0.1,0.1,0.2,0.1c1.1,1.4,1.8,2.9,2.1,4.7c4.5,22.5,11.7,44.1,24.3,63.5c1.1,1.7,1.8,3.5,1.8,5.6l0,0
		c0-0.1,0.1-0.2,0.1-0.3c1.6-1,2.2,0.2,2.9,1.1c23.9,32.5,57.5,47.9,96.1,54.4c20.8,3.5,41.7,3.5,62.7,3.9c0.1,0,0.2,0.1,0.3,0.1
		c15.2,0,30.4-0.1,45.6-0.1c24.3,0,48.5-1.5,72.6-4.9c0.9-0.1,1.8-0.1,2.7-0.1c0.2-0.1,0.5-0.2,0.7-0.3c16.7-3,33.4-6,49.2-12.4
		c7.9-3.2,15.5-6.9,22.7-11.4c1.3-0.8,2.6-2.6,4.4-1.5c0.1-0.7,0.3-1.4,0.4-2.1c0.3,0.2,0.5,0.3,0.7,0.5c5.4-4.5,10.8-8.9,16.1-13.4
		c0,0,0,0,0-0.1c0.8-1.4,1.5-2.8,2.4-3.9c13.5-15.6,22.4-33.7,29-53.1c10-29.6,14.5-60.3,17.3-91.3c1.7-18.3,3.5-36.6,3.4-55.1
		c-0.9,1.4-1.1,2.9-1.1,4.5c-0.1,12.6-1.6,25.3-2.9,38.2c-3.1,29.3-8,58.2-18.1,85.9c-7.2,19.8-17.1,38.1-32.1,53.1
		c-14,14-31,23.5-49.8,29.5c-33.9,11.1-69,13.7-104.3,14.7c-9.5,0.3-19,0.4-28.5,0.4c-15.7,0-31.4-0.2-47.1-0.3
		C879.2,727.6,859.5,726.1,840.1,721.8z"/>
	<path class="st4" d="M108.7,474.4c0,0.1,0,0.2,0,0.2l0,0c1.3-9.9-1.6-19.7-0.9-29.5c0-0.2,0-0.5,0-0.7c0.1-3.5-1.7-5.4-5.6-5.5
		c-1.3,0-2.6-0.3-3.8-0.7c-1.3-0.4-2.4-0.9-3.7-1.5l0,0c-7.5-3.3-12.6-8.8-16.8-15c-2.1-3.1-3.9-6.5-5.6-10
		c-2.7-5.6-2.5-11.8-4.3-17.5l0,0c-0.1,2.6-0.1,5.2-0.4,7.8c-1.9,18.8,3.5,35.3,16,49.3c3.7,4.1,7.9,8.3,13.1,8.8
		c7,0.6,10.2,3.4,11.4,8c0.1,0.3,0.2,0.6,0.3,1C108.8,470.6,108.9,472.4,108.7,474.4z"/>
	<path class="st4" d="M1223.7,399.6c-1,17.8-17.2,36.3-34.6,39.4c-2.1,0.4-3.9,1-3.8,3.4c0.5,10-2.1,19.8-1,29.7v0.1
		c0,0.1,0,0.2,0,0.2c0-0.2,0.1-0.4,0.1-0.6c0-0.3,0.1-0.6,0.2-1c0-0.2,0.1-0.4,0.1-0.7c0.2-0.9,0.3-1.9,0.2-2.8
		c-0.2-3.8,0.7-5.5,5.1-5.7c6.6-0.4,12.1-3.9,17-8.2c8.8-8,13.6-18.1,16.8-29.4c2.8-10.4,1.1-20.8,1-31.1
		C1223.5,395,1223.8,397.4,1223.7,399.6z"/>
	<path class="st5" d="M1117.3,1220.1c0-3.2,0.2-6.5,0.8-9.8c0-0.5-0.1-1-0.2-1.6c0.2-4.3,0.4-8.7,0.6-12.9
		c0.2-5.5,0.5-11.2,0.8-16.8c0.2-5.6,0.5-11.2,0.8-16.8c0.1-0.4,0.2-0.8,0.3-1.4c0-1.1,0-2.3,0-3.3c0-4.6,0-9.2,0.6-13.6
		c0-1,0-2.1,0-3.1c0-1.1-0.1-2.2-0.1-3.3c-0.3-8.8,0.1-17.6,0.3-26.4c0.1-0.1,0.2-0.3,0.3-0.5c0-21.1,0-42.3,0-63.4
		c0-0.2-0.1-0.3-0.2-0.5c-0.2-13.4-0.8-26.8-0.2-40.2c0-0.5,0-1,0-1.7c0-0.4-0.1-0.8-0.1-1.3c-0.8-9.9-0.5-20-0.5-29.9
		c-0.1-0.2-0.1-0.5-0.2-0.8v-0.1c0-0.2,0-0.5,0-0.7c-0.1-5.9-0.1-11.8-0.2-17.6c0-0.1,0-0.3,0-0.4c0-0.1,0-0.3,0-0.5
		c-0.1-0.7-0.1-1.5-0.2-2.2c-0.6-8.7-0.5-17.4-0.5-26.2c0-0.3,0-0.6,0-0.8c0-0.1-0.1-0.2-0.1-0.4c0-0.5-0.1-1-0.1-1.6
		c-0.3-4.1-0.5-8.1-0.2-12.2c0-0.4,0.1-0.9,0.1-1.4c0-0.6,0-1.4,0-2c-1-9.4-0.7-18.8-0.6-28.3c0-0.1-0.1-0.3-0.1-0.4
		c-0.2-10-0.6-19.9-0.4-29.9c0-1.7,0-3.3,0.1-5l0,0c-0.2-0.2-0.3-0.3-0.5-0.5c0,13.4,0,26.7,0,39.9c-0.1,0-0.1,0-0.2,0
		c0,0.1,0,0.3,0,0.4c-0.4,0-0.7,0-1.1,0c0-3.8,0-7.6,0-11.4c0-11.3,0-22.5,0-33.8c0-2.1-0.2-4.2,0.8-6.2c0.1-0.2,0.2-0.4,0.3-0.6
		c0.1-6.4,0.1-12.6,0.2-18.9c0-0.2-0.1-0.4-0.1-0.6c0,0,0-0.1,0-0.2c0-0.5,0-1,0-1.6c-0.1-4.6-0.1-9.1-0.2-13.7c0-0.7,0-1.5,0-2.2
		v-0.1c0-0.2,0-0.4-0.1-0.5V793c0,0.5,0,1,0,1.5c0.1,0.5,0.1,0.9,0.2,1.5c-0.1-0.4-0.1-0.8-0.2-1.4c0,0.5,0,0.9,0,1.5V796
		c-0.1-0.6-0.1-1.4-0.2-2c0-0.1,0-0.3,0-0.4c-0.7-6.9-0.6-13.9-0.6-20.9c0,0.2,0.1,0.3,0.1,0.4c0.1,0.3,0.1,0.5,0.2,0.8
		c0-0.1,0-0.2,0-0.4c0-0.1-0.1-0.3-0.1-0.4c0-0.2-0.1-0.3-0.1-0.4l0,0c-0.8-16.7-1.6-33.3-2.3-50c0-0.5,0-0.9-0.4-2.1
		c0-0.2,0-0.3,0-0.5V720c-1.9-1.1-3.1,0.7-4.4,1.5c-7.2,4.5-14.8,8.1-22.7,11.4c-15.9,6.4-32.5,9.4-49.2,12.4
		c-0.2,0.1-0.5,0.2-0.7,0.3c0.1,0,0.3,0,0.4,0c-0.6,0.2-1.3,0.4-1.9,0.6c-2.9,0.9-5.8,1.9-8.8,2.7c-11.3,3.2-22.7,5.5-34.4,6.9
		c-22.9,2.6-45.8,1.3-68.5-2.9c-1.4-0.2-2.6-0.5-4-0.9c-1.6-0.3-3-0.8-4.5-1.3c0.2,0,0.5,0,0.7,0c-0.1,0-0.2-0.1-0.3-0.1
		c-21-0.3-41.9-0.3-62.7-3.9c-38.6-6.6-72.2-21.9-96.1-54.4c-0.7-0.9-1.4-2.2-2.9-1.1c0,0.1-0.1,0.2-0.1,0.3l0,0c0,0.1,0,0.1,0,0.2
		c-0.1,0.5-0.3,1.1-0.5,1.7c-1.7,4.3-4.4,7.9-6.9,11.7l-0.1,0.1c1.3,3-0.2,5.6-1.7,7.9c-4.8,7.6-11.1,13.5-20,15.4
		c-8.8,1.9-14.2,7.3-17.9,15c-1.7,3.3-2.7,7.2-6.3,9.3c0,0.1,0,0.2,0,0.3c-1.8,5.4-2.7,11.2-5.1,16.4c-3,6.7-7.4,12.1-13.5,16.2
		c0.4,2.6-1.6,3.4-3.3,4.2c-4.5,2-9,3.5-13.4,4.6c-16.1,4.1-32.1,2.2-48.1-5.2c-2.3-1-5.8-1.9-5.4-5.8
		c-10.4-8.2-14.9-19.7-17.5-32.2c0-0.1,0-0.2,0-0.3c-0.4,0.5-0.8,1.3-1.4,1.6c-0.6,0.5-1.4,0.6-2.1-0.9c-4-8.9-11.8-12.3-20.4-14.5
		c-13.1-3.3-19.2-13.9-25.3-24.5c-0.6-0.9-0.4-2-0.1-2.9c0.1,0.1,0.1,0.1,0.2,0.2l0,0c-2.6-4.5-4.8-9.3-5.9-14.4
		c-0.1-0.4-0.2-0.9-0.3-1.4c0-0.2,0-0.4,0-0.5c-0.1-0.1-0.1-0.1-0.2-0.1c-1.3-0.8-2.1-0.5-2.6,0.2c-0.5,0.6-0.8,1.7-1.3,2.2
		c-3.3,4.3-7,8.3-10.7,12.1c-6.3,6.2-13.1,11.7-20.7,16.5c-25.5,16.3-53.7,23.7-83.3,25c-51.5,2.4-103.1,3.3-154.5-2.8
		c-23.5-2.8-46.6-7.5-68.2-17.6c-7.6-3.5-14.4-8.6-21.6-12.7c-0.5-0.3-1.1-0.6-1.7-0.9c0,0.2,0,0.3,0,0.5
		c-0.6,9.9-1.4,19.8-1.9,29.6c-4.8,84.8-5.8,169.7-5.5,254.6c0.1,14.2,0,28.5,0,42.7c0.1,7.6,0.1,15.3,0.2,22.9c0,0.9,0,1.9,0,2.8
		c0,0.1,0,0.1,0,0.2c0.2,1.9,0.4,3.7,0.4,5.5c0.5,49.3,1.1,98.7,1.7,148c0.7,0,1.6,0,2.3,0c2.5,0,5-0.1,7.5-0.1
		c157.9,0,315.8,0,473.9,0c153.2,0,306.4,0,459.8-0.1c2.1,0,4-0.1,5.1,2.1c0,0.1,0.1,0.1,0.1,0.2
		C1117.3,1222.7,1117.3,1221.4,1117.3,1220.1z M900,1215.9L900,1215.9c-17.1,0-34.2,0-51.2,0c-14.6,0-29.2-0.3-43.8,0.1
		c-77,2.1-154-0.3-230.9,1.1c-72.3,1.4-144.6,0.2-216.8,0.8c-7.3,0.1-8.3,0-8.3-5.6c0-0.8,0-1.7,0-2.7
		c1.1-58.4,13.2-114.1,40.8-165.9c13.5-25.2,30.5-47.9,50.5-67.9c4.7-4.7,9.5-9.2,14.5-13.6c11.2-9.8,22.8-18.5,35-26.1
		c34.4-21.7,72.7-34.7,114.1-40.1c0.2,0,0.3,0,0.5-0.1c13.7-1.8,27.3-2.7,40.9-2.7c35-0.1,69.5,5.9,102.8,19.9
		c34.3,14.3,62.5,36.3,83.9,67.1c17.8,25.7,32.9,52.7,42.2,82.7c5.6,18.1,7.8,37,12.5,55.4c3.4,13.7,7.3,27.1,10.8,40.8
		c4.3,16.3,9.1,32.5,9.4,49.5l0,0c0,0.4,0,0.8,0,1.1C906.9,1215.6,906.1,1215.9,900,1215.9z"/>
	<path class="st6" d="M1116.5,772.9c0-0.1-0.1-0.1-0.1-0.2c0,0.1,0.1,0.2,0.1,0.4c0,0.1,0.1,0.3,0.1,0.4c0.1,0.4,0.2,0.8,0.3,1.4
		C1116.9,774.3,1116.7,773.5,1116.5,772.9z"/>
	<path class="st6" d="M1118.8,879.3c0-0.1,0-0.1,0-0.2c0,0.3,0.1,0.5,0.1,0.8C1118.9,879.7,1118.9,879.5,1118.8,879.3z"/>
	<path class="st7" d="M164.4,971.3c0,36,0.1,65.2,0.3,65.2s0.3-29.2,0.3-65.2s-0.1-65.2-0.3-65.2
		C164.5,906.1,164.4,935.3,164.4,971.3z"/>
	<path class="st8" d="M165.3,1048.8c0,19.2,0,38.5,0,57.7l0,0c0,1.1,0.2,2.4,0.3,3.5c0.3,0,0.6,0,0.9-0.1l0,0c0-13.8,0-27.5,0-41.3
		c-0.1,0.1-0.1,0-0.1-0.1c0-0.9,0-1.9,0-2.8c-0.1-7.6-0.1-15.3-0.2-22.9l0,0C165,1044.6,165.3,1046.7,165.3,1048.8z"/>
	<path class="st9" d="M1117.3,796c-0.1-0.5-0.1-0.9-0.2-1.5v0.1C1117.2,795.1,1117.2,795.5,1117.3,796z"/>
	<path class="st9" d="M1113.7,720.7c0.4,1.1,0.4,1.6,0.4,2.1c0.7,16.7,1.5,33.3,2.3,50l0,0c0,0.1,0.1,0.1,0.1,0.2
		c0.2,0.6,0.4,1.4,0.4,2l0,0c0.2,1.4,0.4,2.8,0.5,4.2c0.2,3.3,0.1,6.7,0,10c-0.1,1.6-0.1,3.1-0.1,4.7c0,0.7,0,1.5,0,2.2
		c0.1,4.6,0.1,9.1,0.2,13.7c0,0.5,0,1,0,1.6c0,0.1,0,0.2,0,0.2c0,0.2,0.1,0.4,0.1,0.6c0-0.2,0-0.5,0-0.7c0,0,0,0.1,0,0.2
		c0.4,2.6,0.7,5.3,0.8,7.9c0.3,7.7-0.3,15.4-0.2,23.1c0,0.2,0,0.4,0,0.6l-0.1-0.1c-0.1,1.7-0.1,3.3-0.1,5c-0.2,10,0.2,19.9,0.4,29.9
		c0,0.1,0.1,0.3,0.1,0.4c0-0.1,0-0.2,0-0.3c0.1,0.3,0.1,0.7,0.2,1c0,0.1,0,0.1,0,0.2c0.1,0.2,0.1,0.4,0.1,0.6v0.1
		c0.1,0.2,0.1,0.4,0.1,0.6c0.3,1.8,0.4,3.7,0.5,5.5c0.2,4.4,0,8.9-0.1,13.4c-0.1,3.1-0.1,6.2,0,9.2c0-0.3-0.1-0.7-0.1-1.1
		c0-0.3-0.1-0.6-0.1-0.9c0,0.6,0,1.4,0,2c0,0.4-0.1,0.9-0.1,1.4c-0.3,4.1-0.1,8.1,0.2,12.2c0,0.5,0.1,1,0.1,1.6
		c0,0.1,0.1,0.2,0.1,0.4c0,0,0-0.1,0-0.2c0.2,0.9,0.4,1.9,0.5,2.8c0.3,1.8,0.4,3.5,0.5,5.3c0.2,4.5,0,9-0.1,13.5
		c0,1.6-0.1,3-0.1,4.6c0,1.4,0,2.7,0,4.1c0,0.1,0,0.2,0,0.3v0.1v-0.1c0-0.4-0.1-0.7-0.1-1.1c0,0.2,0,0.3,0,0.5c0,0.1,0,0.3,0,0.4
		c0.1,5.8,0.1,11.7,0.2,17.6c0,0.2,0,0.5,0,0.7v0.1c0.1,0.3,0.1,0.5,0.2,0.8c0-0.2,0-0.3,0-0.5v0.1c0.1,0.3,0.2,0.7,0.3,1.1
		c0.3,1.9,0.5,3.7,0.6,5.5c0.2,3.8,0,7.6-0.1,11.4c0,1.3,0,2.5,0,3.8c0,0.3,0,0.7,0,1c0.1,1.1,0.1,2.4,0.1,3.5
		c0,2.4-0.1,4.8-0.1,7.4c0-0.1,0-0.2,0-0.3c-0.1-0.6-0.1-1.3-0.2-1.9c0,0.5,0,1,0,1.7c-0.6,13.4,0,26.8,0.2,40.2
		c0.1,0.2,0.2,0.3,0.2,0.5v-0.1c0.1,0.2,0.1,0.3,0.2,0.5c0.6,1.4,0.6,2.9,0.6,4.5c0,18.1,0,36.3,0,54.4c0,1.6,0,3-0.6,4.5
		c-0.1,0.2-0.2,0.4-0.2,0.6c0-0.3,0-0.7,0-1c-0.1,0.2-0.2,0.4-0.3,0.5c-0.2,8.8-0.6,17.6-0.3,26.4c0,1.1,0.1,2.2,0.1,3.3
		c0,1,0,2.1,0,3.1c0-0.1,0-0.2,0-0.4c0-0.1,0-0.1,0-0.2c0.1-0.7,0.2-1.4,0.3-2c-0.1,2.2-0.1,4.4,0,6.6c0.1,2.9,0.2,5.9,0,9
		c-0.1,2-0.4,4-0.9,5.9c0-0.6,0-1.3,0-2c-0.1,0.4-0.2,0.8-0.3,1.4c-0.3,5.6-0.6,11.2-0.8,16.8c-0.3,5.6-0.6,11.3-0.8,16.8
		c-0.2,4.3-0.4,8.7-0.6,12.9c0.1,0.5,0.1,1,0.2,1.6c0.1,1.3,0.2,2.5,0.3,3.8c0-0.4,0.1-0.8,0.1-1.1c1.1-9.3,2.2-18.5,2.7-27.8
		c1.1-21.7,1.7-43.3,1.9-65c0.4-32.6,0.4-65.2-0.5-97.8c-1-37.1-0.9-74.3-2.4-111.3c-0.6-16.2-0.1-32.2-0.8-48.4
		c-1-24.2-0.1-48.6-1.3-72.9c-0.7-15.5-0.4-31.2-1.4-46.8c-0.4-6.8-0.8-13.5-0.8-20.2c0-1.1,0-2.2-0.5-3.1c-0.2-0.3-0.4-0.6-0.6-0.9
		c-0.2-0.2-0.4-0.4-0.7-0.5c-0.1,0.7-0.3,1.4-0.4,2.1v0.1C1113.7,720.3,1113.7,720.4,1113.7,720.7z"/>
	<path class="st2" d="M540.4,540.3c0.7-23.9-0.3-47.6-1.9-71.2c-0.6-9-0.6-18-3.4-26.7c-6.2-18.4-14.8-35.5-25.8-51.4
		c-1.8-1.8-4-1.8-6.3-1.9c-71.6-2.5-143.1-1.8-214.4,4.2c-20.5,1.8-41.1,4.2-61.6,6.3l-10.7,1.6c0,0.1,0.1,0.3,0.2,0.4
		c-20.4,30.8-32.2,64.4-34.6,101.3c-2.5,37.8,7,72.6,24.9,105.3c8,14.7,20.2,26.4,32.5,37.7c14.5,13.1,30,25.1,47.2,34.9
		c5,2.9,10.2,5.2,15.4,7.5c-0.2,0-0.5,0-0.7,0l0,0c0.2,0.1,0.4,0.2,0.5,0.2c0.8,0.1,1.7,0.4,2.6,0.4c39.2,1.1,78.5,1.8,117.7-0.7
		c23.4-1.6,43.5-10,60.2-27.1c9.3-9.4,17.7-19.2,25.3-29.5c16.6-22.6,28.2-47.7,31.6-77.2C539.7,549.6,540,545,540.4,540.3z
		 M288.2,512.4c-0.1,12.6-3.3,24.3-10.2,34.9c-2.6,4.1-5.6,7.6-9,10.5c-11.7,10.3-27.1,12.9-43.3,6.5c-18.5-7.4-29.7-21.4-33.3-40.9
		c-2.2-11.9,1.4-22.7,9.1-32c1.6-1.8,3.1-3.5,4.7-5.1c11.3-11.2,25.1-17.2,41.6-17.5c22.8-0.4,39.1,15.4,40.4,38.9
		C288.2,509.2,288.2,510.8,288.2,512.4z"/>
	<path class="st2" d="M540.5,540.1c0-0.1,0.1-0.1,0.1-0.2l0,0C540.6,540,540.5,540,540.5,540.1z"/>
	<path class="st5" d="M842.5,324.5c40.5-21.9,83.9-28,129.2-23.6c10,0.9,20,2.7,30.2,4.3c-0.4-0.8-0.4-1.1-0.6-1.4
		c0,0-0.1,0-0.1-0.1c-1.3-1.1-2.6-2.3-3.9-3.2c-44.9-36.3-95.6-61.5-150.3-79.5c-21.7-7.1-43.8-12.3-65.9-17.4
		c-23.9-4.2-47.8-8.1-71.9-10.1c-13.1-1-26.2-1.9-39.3-2.7c-0.4,0-0.7,0-1.1-0.1l0,0l0,0c-7.6-0.1-15.3-0.2-22.9-0.2
		c-22.9-0.1-45.8,0.4-68.7,2.3c-12.3,2.5-24.8,3.1-37.1,4.6c-17.4,2-34.8,3.9-52,7.2c-14.6,3.8-29.3,7.2-43.9,11.4
		c-42.3,11.9-82.9,27.8-119.3,53.1c-14.5,10-27.7,21.4-39.6,34.4c-0.7,0.8-2,1.5-1.6,3.3l0,0c18.6-4.7,37.3-7.8,56.3-9.1
		c21.2-1.4,41.8-0.3,61.9,3.5c21,4.1,41.3,11.3,60.8,22.2c4.1,2.3,8.1,3.4,12.8,3.5c28.9,0.5,57.7,2,86.5,3.2c5,0.2,6.5,1.9,6.5,6.7
		c0,12.2,0.6,24.3,0.8,36.5c0,2.8,0.6,4.1,2.5,4.2c0.6,0,1.5-0.1,2.4-0.3c24.2-6,48.4-9.3,72.6-9.4c24.3-0.1,48.5,2.8,72.9,9
		c0.8,0.2,1.5,0.3,2.1,0.3c2,0,2.5-1.3,2.6-4c0.2-12.2,0.8-24.3,0.8-36.5c0-4.6,1.1-6.3,6-6.5c34.4-1.6,68.7-3,103.2-3.7
		C837.1,326.5,839.8,326,842.5,324.5z"/>
	<path class="st5" d="M572.7,563.5c-0.7,17-2.5,34-5.3,50.8c-0.3,2.1-1.8,4.4,0.5,6.3c0.2-0.2,0.4-0.5,0.7-0.7
		c0.2-0.1,0.4-0.2,0.5-0.3c6-3.8,9.1-8,7.8-16.5c-1.5-9.8,5.4-17.1,13.2-22.7c9.4-6.7,20-10.1,31.2-12.5c20.2-4.4,40.1-2.2,59.5,4.4
		c5.6,1.9,10.8,4.7,15.3,8.6c3.3,2.8,5.8,6,7.5,9.6c1.8,3.7,2.5,7.6,2.2,12.1c-0.1,1.6,0.2,2.7,0.9,3.5c0.5,0.5,1.1,0.9,2.1,1.3
		c5.1,2.1,9.9,4.7,14.2,8.2c0.7,0.5,1.4,1.1,2.1,1.8c1-1,0.5-2.3,0.3-3.4c-1-7.4-2.2-14.7-3-22.1c-0.9-9.4-1.8-18.8-2.3-28.1
		c-0.5-9.3-0.6-18.5-0.3-27.7v-0.1c-0.2-9.4-0.3-18.8-0.3-28.2c-0.1-28.3,0.6-56.5,2.1-84.8c0.1-1.9,0.2-3.2,0.1-4.3
		c-0.1-3.7-1.5-4-7.1-5.4c-44.3-11.4-88.7-11.3-133-0.3c-9.2,2.3-10.8,1.6-10.7,6.2c0,1.8,0.3,4.3,0.4,8c1.4,26.9,1.9,53.9,1.9,80.9
		c0,9-0.1,17.9-0.3,26.8v0.1C573.2,544.6,573.1,554,572.7,563.5z"/>
	<path class="st10" d="M286.6,680.7c-17.2-9.8-32.8-21.8-47.2-34.9c-12.3-11.3-24.5-22.9-32.5-37.7c-17.9-32.8-27.4-67.6-24.9-105.3
		c2.4-36.9,14.2-70.5,34.6-101.3c-0.1-0.2-0.2-0.3-0.2-0.4c0,0,0,0,0-0.1l-2,0.3l-37,5.3c-0.1,0.4-0.2,0.8-0.2,1.3
		c-0.4,0.7-0.7,1.6-1.1,2.3c-44.6,77.4-34.2,180.2,20.7,250.1c2.9,3.8,6.4,6.8,10.6,8.9c29.7,14.4,61.7,17.4,94.1,19.1
		c0.2,0,0.5,0,0.7,0C296.8,685.9,291.6,683.6,286.6,680.7z"/>
	<path class="st10" d="M840.7,679.8c3.2,2.4,6.8,4,10.8,4.8c18,4,36.3,5,54.7,4.5c-9.9-1.3-17.7-7.3-25.6-12.7
		c-16.2-11.4-31.5-23.9-45.7-37.8c-16.1-15.9-27.7-34.3-35.9-55.4c-10.4-27.1-14.7-55-12.7-83.8c2.1-30.4,11.3-58.5,26.1-84.9
		c3.4-6,7.3-11.8,11-17.7c1-1.7,2.1-3.1,3.3-4.4c1.9-2.1,4.1-3.7,6.5-4.7c-11.3,0.2-22.6,0.8-33.9,1c-1.5,0-2.7,0.6-3.9,1.4
		c0,0,0,0.1-0.1,0.1c-32.3,46-44.3,96.9-36.6,151.6c0.4,2.9,0.8,5.7,1.4,8.7C769.7,604,796.5,647.4,840.7,679.8z"/>
	<path class="st4" d="M539.9,472.1c-0.2-5-0.5-10-0.7-15c-1.6-27.4-4.3-54.8-5.6-82.3c0-0.8-0.1-1.7-0.1-2.5
		c-0.2-3.7-1.6-5.3-5.3-5.4c-19.9-0.6-39.8-1.8-59.9-2c-47.9-0.4-95.9-0.4-143.7,2.8c-23.6,1.6-47,3.2-70.5,5.6
		c-36.8,3.9-73.4,9.2-109.8,15.3c-3.4,0.6-5,2-4.8,5.4l0,0c0.3,5.8,0.6,11.8,0.9,17.6l7.7-1.1c2-0.3,4.1-0.6,6.8-0.9l22.5-3.2
		l37-5.3l2-0.3l10.8-1.6c20.5-2.1,41.1-4.5,61.6-6.3c71.3-5.9,142.9-6.7,214.4-4.2c2.3,0.1,4.5,0.1,6.3,1.9c0.2-0.2,0.3-0.5,0.5-0.7
		s0.3-0.4,0.5-0.5c0.4-0.3,0.8-0.4,1.4-0.4c5.6,0.3,11.4,0.5,17,0.9c3.2,0.3,4.2,2.8,4.4,5.5c1.1,13.8,2.2,27.5,3.2,41.3
		c0.1,1.1,0.1,2.3-0.2,3.3c-0.2,0.7-0.5,1.5-1,2.1c2.7,8.7,2.8,17.7,3.4,26.7c1.6,23.7,2.6,47.2,2,70.9l0,0c0,0,0,0,0,0.1
		c0.3-0.4,0.5-0.8,0.6-1.3c0.7-1.9,0.5-3.9,0.5-5.8C542.1,512.7,540.7,492.4,539.9,472.1z"/>
	<path class="st5" d="M1019.9,221.4c0,0,0,0.1-0.1,0.1C1019.9,221.5,1019.9,221.5,1019.9,221.4c-2.1,4.2-4.2,7.8-5.9,11.7
		c-0.9,2.1-1.9,4.1-2.6,6.3c-1.7,4.7-2.6,9.5-2.4,14.6c0.5,8.3,4.8,12.9,13,14c1.8,0.2,3.3,0.7,4.6,2l0,0c5.2-8.2,8.2-17.4,11-26.7
		c0.2-0.9,0.5-1.8,0.9-2.5c1.3-2.4,3.2-3.8,6.5-2.8c4.4,1.3,5,4.7,3.7,8.7c-2.1,6.4-4.3,12.7-6.4,19.1c0.7,0,1.7-0.2,2,0.1
		c7.1,7.4,16.2,6.3,25,6.3c0.4,0,0.9,0.3,2,0.6c-0.1,0-0.1,0.1-0.2,0.1c0.1,0,0.1,0,0.2,0.1c-2.2,1.9-4.1,3.5-6,5
		c-0.9,0.7-1.4,1.3-1.5,1.7c0.1,0.6,0.9,0.9,1.9,1.4c0.2,0.1,0.4,0.1,0.6,0.3c2.5,0.6,5.2-0.5,7.6,1c2.7,2.5,3.8,4.3,2.9,6.2
		c-0.3,1.1-1.4,2.3-2.9,3.8h0.1c-6.3,2.2-12.7-0.1-19.1,0.8c0,1.8,0,3.7,0,5.5c0,9.5,3.8,14.3,12.9,16.8c1.8,0.5,3.9,0.3,4.8,2.5
		l0,0c7.4-9.6,12.9-20.1,17.5-31.3c4.7-11.4,7.6-23.1,6.6-35.6c-1.7-19.7-15.7-35.4-35-38.6c-18.4-3-35.2,0.9-50.4,11.7
		c0,0,0,0,0.1,0C1014.5,225.1,1016.3,221.1,1019.9,221.4z"/>
	<path class="st5" d="M203.7,217.5c1.5,2.7,1.3,5.6,1.6,8.6c1.4,14.7,7.4,26.7,19.3,35.5c2.5-4.7,6-5.3,10.7-2.8
		c3.7,1.9,7.4,3.4,11.2,5.2l0,0c0,0-0.1,0-0.1-0.1c0.4-2.8-2.1-4.2-3.3-6c-1.6-2.5-0.9-3.7,1.7-4.5c3.3-1,6.8-1.3,10.2-0.9
		c2.8,0.3,4.4-0.6,4.3-3.7c0,0.1,0.1,0.3,0.1,0.4c0-0.1,0-0.1,0-0.1s0,0,0-0.1c-0.2-2.3,0.1-4.4,1.4-5.9c0.6-0.7,1.5-1.4,2.5-1.7
		c1.9-0.6,3.4-0.4,4.7,0.4c0.6,0.4,1.1,0.9,1.7,1.5c0.4,0.5,0.8,1,1.1,1.7c1-1.3,0.9-3.8,2.8-3.9h0.1l0,0c2.1-0.1,2.1,2.4,3,3.8
		c1.1,1.7,2.2,3.5,3.4,5.1c3.3,4.1,7.3,6.5,10.8,6.6c4.1,0.1,7.8-2.8,10-9.4c0.3-1.1,1.1-2.1,1.8-3.1c0,0,0,0,0.1,0.1l0,0
		c0,0,0,0,0-0.1c-7-11-15.5-20.4-26.1-28.2c-13.7-10-28.9-14.3-45.7-12.5c-11,1.1-21.3,4.1-27.6,14.2c0,0,0,0,0,0.1s0.1,0.1,0.1,0.2
		C203.6,217.6,203.7,217.5,203.7,217.5z"/>
	<path class="st11" d="M224.6,261.5c-12-8.9-17.9-20.9-19.3-35.5c-0.3-2.9-0.1-5.8-1.6-8.6l-0.1,0.1c-9,11.3-11.2,24.4-9.5,38.2
		c3,26,15.4,47.1,35.2,64.1c7,6,9.3,5.9,16.6,0.4c1.5-1.1,2.6-2.7,3.9-4.2c5.1-6.2,10.1-12.3,15.3-18.5c1.6-1.9,2.6-3,3-4.1
		c0.8-1.8-0.4-2.8-4-5.6c-10.1-8.1-21.9-13.2-33.5-18.8C227.3,267.7,224.7,265.6,224.6,261.5C224.7,261.6,224.7,261.6,224.6,261.5
		C224.7,261.6,224.7,261.6,224.6,261.5z"/>
	<path class="st11" d="M1009,254c-0.3-5.2,0.6-10,2.4-14.7c0.7-2.1,1.7-4.2,2.6-6.3c1.8-3.9,3.9-7.5,5.9-11.6c0,0,0,0-0.1,0
		c-3.7-0.2-5.4,3.9-8.8,2.8c-14,9.2-23.9,22.4-33.9,35.5c-0.6,0.7-0.7,1.3-0.7,1.7l0,0c0.2,0.7,0.9,1.3,1.8,1.8
		c1.9,1.3,3.9,2.6,5.7,3.9c7.4,5.1,14.6,10.4,21.6,16c2.1,1.6,4.1,3.2,6,4.9c0.8,0.7,1.6,1,2.2,1c0.7,0,1.4-0.5,2-1.5
		c4-5.6,8.2-11.2,10.7-17.6c0,0,0,0-0.1-0.1c-1.3-1.3-2.8-1.7-4.5-1.9C1013.8,266.9,1009.5,262.3,1009,254z"/>
	<path class="st12" d="M341.8,327.5c0-0.3-0.1-0.6-0.1-0.9c13.9-2.9,27.7-5.8,41.5-8.7c-0.6-0.2-1.4-0.4-2-0.5
		c-38.4-3.8-75.8,1-112.1,14c-0.4,0.1-0.9,0.2-1.4,0.3h-0.1c-0.1,0-0.1,0.1-0.2,0.1c-0.6,0.3-1.1,0.7-1.5,1.8c1.4,0,2.5,0.1,3.7,0
		c14.5-1.1,29-2.4,43.6-3.4c14.4-1,28.7-1.8,43.1-2.6C351.5,327.5,346.7,327.5,341.8,327.5z"/>
	<path class="st13" d="M1040.5,292.8L1040.5,292.8C1040.5,292.8,1040.6,292.8,1040.5,292.8C1040.6,292.8,1040.6,292.8,1040.5,292.8
		C1040.6,292.8,1040.5,292.8,1040.5,292.8z"/>
	<path class="st11" d="M1026.5,300.9c9.2,8.6,17.5,17.8,30.1,22.3c10.4,3.8,10.1,4.6,15.7-5.4c-0.8-2.1-2.9-1.9-4.7-2.4
		c-9.2-2.5-12.8-7.3-12.9-16.8c0-1.9,0-3.8,0-5.7c-0.2,0-0.3,0-0.5,0h-0.1c-4.6,0-9,0-13.6-0.1h-0.1c0,0,0,0-0.1,0
		c-0.1,0-0.1,0.1-0.2,0.1c-2.3,0.4-4.7,0.9-7,1.4v-0.1c-2.1,0.9-4.1,1.9-6.2,2.7c-1.3,0.5-1.9,1.1-2,1.8
		C1025,299.4,1025.6,300.1,1026.5,300.9z"/>
	<path class="st11" d="M302.8,243.9c-0.6,1-1.5,2-1.8,3.1c-2.2,6.6-5.9,9.5-10,9.4c-3.7-0.1-7.6-2.4-11-6.6
		c-1.3-1.6-2.3-3.4-3.4-5.1c-0.9-1.4-0.9-3.8-2.9-3.8h-0.1c-2,0.1-1.8,2.6-2.8,3.9l0,0l0,0c1.5,10.6,3.4,21.2,6.8,31.4
		c0.6,1.8,1,3,1.5,3.8c0.9,1.6,1.8,0.6,4.8-2c5.7-5,11.4-10.1,17.3-14.9c6-4.9,8.8-7,8.3-9.8c-0.3-1.9-2.1-4.2-5.2-7.9
		C303.8,245,303.4,244.5,302.8,243.9L302.8,243.9z"/>
	<path class="st14" d="M1027.8,331.9c-1.9-0.7-3.9-1.4-5.8-2c-7.8-2.5-15.6-4.4-23.7-5.9c-5.9-1.1-12-2.1-18-2.9
		c-2.6-0.3-6.2-0.7-9.1-1c-0.9-0.1-1.8-0.2-2.5-0.2h-0.1c-9.7,2.6-20.9,3.5-30.2,7.7c-0.1,0-0.1,0-0.2,0.1c1,0,2.1,0.3,3.1,0.3
		c13.8,0.6,27.6,1.4,41.4,2.3c0.4,0,0.9,0.1,1.4,0.1c13.8,0.9,27.5,2,41.3,3.3l0,0c0.7,0.1,1.5,0.2,2.2,0.3c0.7,0,1.5-0.1,2.2-0.6
		l0,0c0-0.3-0.1-0.5-0.2-0.7C1029.1,332.1,1028.4,332.1,1027.8,331.9z"/>
	<path class="st14" d="M341.7,326.6c0.1,0.3,0.1,0.6,0.1,0.9c4.9,0,9.7,0,14.5,0c20.9-0.4,41.8-0.9,62.7-1.4c-0.1,0-0.2-0.1-0.2-0.1
		c-11.5-4.4-23.3-7.4-35.6-8.1C369.4,320.9,355.5,323.8,341.7,326.6z"/>
	<path class="st12" d="M891.9,327.4c15.4,0,30.9,0,46.3,0c9.3-4.2,20.3-5.2,30.1-7.7c0.1,0,0.2-0.1,0.3-0.1s0.2,0,0.2-0.1
		c-0.7,0-2.2,0-2.8-0.1c-24.4-2-48.6-0.7-72.4,5.3c-0.3,0.1-0.6,0.1-0.9,0.3C892.4,325.3,891.9,325.9,891.9,327.4z"/>
	<path class="st11" d="M1063.7,279.5c0.1-0.4,0.4-0.9,1.5-1.7c2-1.5,3.9-3.1,6-5c-0.1,0-0.1,0-0.2-0.1c-0.9-0.3-1.4-0.5-1.8-0.5
		c-8.9,0-18,1.1-25-6.3c-0.3-0.3-1.4-0.1-2-0.1c-2.7,5.3-5.4,10.5-8.6,16.7c0,0,0,0.1-0.1,0.1c11.6-1.9,22.1-1,32.6-1.1
		c-0.1,0-0.1-0.1-0.2-0.1c-0.1-0.1-0.3-0.1-0.4-0.2C1064.7,280.7,1063.6,280.3,1063.7,279.5z M1046.9,279.8
		C1046.9,279.8,1047,279.8,1046.9,279.8c4,0,7.8,0,11.7,0h0.1c0,0.1,0,0.2,0,0.3h-0.1c-4,0-7.7,0-11.6,0h-0.1
		C1046.9,280,1046.9,279.9,1046.9,279.8z"/>
	<path class="st11" d="M259.2,248.7c0.1,3-1.5,4-4.3,3.7c-3.4-0.3-6.9-0.1-10.2,0.9c-2.6,0.8-3.2,2-1.7,4.5c1.3,1.9,3.8,3.2,3.3,6
		c0,0,0.1,0,0.1,0.1c5.7,3.1,11.5,6.3,17.8,9.5c-0.4-1.9-0.7-3.7-1-5.4c-0.5-2.3-0.9-4.6-1.4-6.8c-0.8-4.1-1.7-8.1-2.5-12.1
		C259.3,249,259.2,248.8,259.2,248.7z"/>
	<path class="st15" d="M668.8,190.7c0.4,0,0.7,0,1.1,0.1c13.1,0.8,26.3,1.7,39.2,2.6c24.2,1.9,48.1,5.9,71.9,10.1c0,0,0,0,0.1-0.1
		c0.1-0.1,0.2-0.1,0.4-0.1c0.1,0,0.2,0,0.3,0c0.2,0,0.3,0,0.4-0.1c0.1,0,0.2-0.1,0.2-0.2s0-0.2-0.1-0.3c-0.1-0.1-0.2-0.2-0.3-0.4
		c-0.1-0.1-0.3-0.2-0.5-0.3c-0.1,0-0.1,0-0.2-0.1c-0.1,0-0.3-0.1-0.4-0.1c-0.6-0.1-1.3-0.2-1.8-0.3c-39.4-8.3-79.4-11.4-119.5-12.7
		c0,0.3,0,0.5,0,0.8h-0.1v0.1c1.6,0.2,3.1,0.1,4.7,0.1c0.8,0,1.6,0.1,2.4,0.2C667.3,190.1,668.1,190.3,668.8,190.7L668.8,190.7z"/>
	<path class="st16" d="M487.9,204.5c17.2-3.2,34.6-5.1,52-7.2c12.3-1.4,24.7-2.1,37-4.6c0.1,0,0.2,0,0.2,0c-2.8-1.5-5.7-1.1-8.7-0.8
		c-22.3,2.7-44.5,5.4-66.9,8.3c-4.8,0.6-9.6,1.7-14.2,2.9c-0.7,0.2-1,0.4-1.1,0.5C486.1,204,487.4,204.2,487.9,204.5z"/>
	<path class="st5" d="M759.7,412.8c0,0.1,0,0.1,0,0.2c3.4-8,8.2-15.3,12.5-22.9c-6.8,2.1-10.8,6.3-10.8,14c0,2.5-1.6,5-1.7,7.7
		C759.7,412,759.7,412.4,759.7,412.8L759.7,412.8z"/>
	<path class="st17" d="M1040.2,292.9c0.1,0,0.2-0.1,0.2-0.1l0,0h-0.1c0.3-0.1,0.6-0.2,0.9-0.3c0.8-0.2,1.7-0.4,2.5-0.5
		c4.7-0.7,9.4,0,14.1-0.1c3.4-0.1,6.8,0,10.3,0.1c1.9,0,3.8,0.1,5.7,0.1c1.6-1.5,2.6-2.6,2.9-3.8c0.5-1.8-0.4-3.4-3-5.9
		c-2.7,0.1-5.4,0.2-8.1,0.4c1.5,0.8,2.8,0.7,4.2,0.8c2.5,0.1,5.3,0.5,5.2,3.8c-0.1,3.1-3,3.4-5.5,3.4c-3.1,0.1-6.3,0-9.4,0.1
		c-7.9,0.2-16-0.8-23.9,1.1c-0.1,0-0.3,0.1-0.4,0.1c-0.2,0-0.5,0-0.8,0c-0.2,0-0.4,0-0.6,0s-0.4,0-0.5,0.1c-0.5,0.2-0.8,0.7-0.6,2
		v0.1C1035.5,293.8,1037.9,293.3,1040.2,292.9z"/>
	<path class="st7" d="M659.4,189.5C659.4,189.5,659.5,189.5,659.4,189.5c0.1-0.3,0.1-0.5,0.1-0.8v-0.1c-14.5,0-29,0-43.5,0v0.1
		c0,0.3,0,0.5,0,0.8C630.6,189.5,644.9,189.5,659.4,189.5z"/>
	<path class="st1" d="M709,607.4c-1-0.4-1.8-0.9-2.2-1.5c-0.7-0.8-0.9-1.9-0.9-3.5c0.3-4.5-0.5-8.4-2.2-12.1
		c-1.7-3.4-4.2-6.6-7.4-9.4c-4.5-4-9.7-6.7-15.3-8.6c-19.4-6.6-39.2-8.7-59.5-4.4c-11.2,2.4-21.8,5.8-31.2,12.5
		c-7.8,5.5-14.7,12.9-13.2,22.7c1.3,8.4-1.9,12.7-7.8,16.5c-0.2,0.1-0.3,0.2-0.5,0.3c-0.3,0.2-0.5,0.5-0.7,0.7
		c-1.6,1.9-2.7,3.9-3.2,6.4c-4.7,20.9-11.5,41-23.5,59c-1.5,2.2-2.5,4.5-2.7,7.2c0,0.2,0,0.4,0,0.5c0.1,0.4,0.2,0.9,0.3,1.4
		c1.1,5.1,3.3,9.9,5.9,14.4l0,0c0.8,0.9,1.6,1.8,2.4,2.6c11.5,11.6,25.6,16.2,42.1,14.2c1.1-0.1,1.9,0,2.4,0.4
		c0.6,0.4,0.9,1.1,1,2.5c0.3,6.8,0.6,13.7,1,20.4c0,0.3,0,0.6,0.1,1c0,0.1,0,0.2,0,0.3c2.6,12.5,7,24,17.5,32.2v-0.1
		c0.8,0.5,1.8,1,2.7,1.5c21.3,10.6,42.9,8.2,64.7,1.5c0.9-0.3,1.8-0.5,2.6-0.8c0,0.1,0,0.2,0.1,0.3h0.1l0,0
		c6-4.1,10.4-9.5,13.5-16.2c2.4-5.2,3.3-11,5.1-16.4c0-0.1,0-0.2,0-0.3v-0.1c-0.1,0.1-0.2,0.1-0.3,0.2c0.2-1,0.3-2,0.4-2.9
		c1.3-9.5,2.3-19.1,2.5-28.7c0.1-3.1,1.5-3.7,4.3-3.3c14.4,1.8,27-1.6,37.3-11.7c0.5-0.4,0.9-0.9,1.5-1.5c0.1,0.1,0.1,0.2,0.1,0.4
		c0,0,0,0,0.1-0.1l0.1-0.1c2.5-3.8,5.2-7.4,6.9-11.7c0.2-0.5,0.4-1.1,0.5-1.7c0-0.1,0-0.1,0-0.2l0,0c0-2.1-0.6-4-1.8-5.6
		c-12.6-19.4-19.8-41-24.3-63.5c-0.3-1.8-0.9-3.3-2.1-4.7c-0.1-0.1-0.1-0.1-0.2-0.1c-0.6-0.5-1.3-1.1-1.9-1.7
		C718.9,612.1,714.1,609.5,709,607.4z M601,595.5c8.9-6.3,19.1-9,29.6-10.4c7.2-1,14.4-2.4,21.6-0.2c9.7,0.7,19.2,2.6,27.8,7.3
		c4.8,2.6,7.1,5.1,7.1,8.6c0.1,2.1-0.6,4.4-2.1,7.2l0,0c-6.2,12.1-16.1,19.7-29.3,22.8c-0.1,0-0.3,0.1-0.4,0.1l0,0
		c-0.1,0-0.1,0-0.2,0.1c0.1,0,0.2,0,0.3,0c-19.3,5.9-46.3-3.5-57.3-20.1c-0.4-0.6-0.7-1.1-1-1.7C593.7,603.3,594.8,599.9,601,595.5z
		 M643.4,765.6c-0.5,8.1-0.9,8.3-9,6.9c-0.9-0.2-2-0.6-2.9-0.9v-0.1c0,0,0,0-0.1,0l0,0c-8.7-1.3-13.8-6.8-16.6-14.6
		c-4-11.3-3.5-22.9-3.4-34.5c0-1.4,0.5-2.2,1.6-2.8l0,0c0.3-0.2,0.6-0.3,0.9-0.4c1.4-0.4,2.7-0.9,4.1-1.4c2.7-0.9,5.5-1.9,8.2-2.8
		c3.1-1,6.3-2,9.5-2.7c0.4-0.1,0.7-0.1,1-0.2c2-0.3,2.9,0.4,2.9,3c0.1,4.3,0.5,8.7,0.8,12.9c1.3,11,3.1,21.9,3,33
		C643.6,762.4,643.5,764,643.4,765.6z M679.9,755.9c-1.3,4.6-3.1,8.1-5.6,10.7c-3.5,3.8-8.3,5.6-14.5,5.7c-0.9,0-2,0-3,0
		c-0.6,0-1-0.1-1.5-0.3c-0.2-0.1-0.3-0.2-0.4-0.3l0,0c-0.1-0.1-0.1-0.2-0.2-0.3c-0.1-0.2-0.1-0.5-0.1-0.9c0-0.2,0-0.4,0-0.6
		c0.4-3,0.5-6.2,0.5-9.2c0-9.2-1.5-18.4-1.8-27.6l0,0l0,0c-1.8-6.6-1.9-13.4-2.3-20c-0.1-2.6,1.3-3.3,3.4-3.3h0.1l0,0
		c9.2-0.1,18.4,0.2,27.1,3.3c2.2,0,2.9,1,2.8,3.2C684.1,729.6,683.5,743,679.9,755.9z M713.5,699.8c-1,0-2.2,0-3.3-0.1
		c-6.9-0.5-13.7-2.4-20.3-4.1c-2-0.5-4-1-5.9-1.5c-7.1-1.6-14.3-2.6-21.5-3c-0.2,0-0.4,0-0.7,0l0,0c-1.3-0.1-2.5-0.1-3.8-0.1
		c-18.6-0.1-36.2,5.2-53.4,11.8c-3.2,1.3-6.4,2.4-9.7,3.4c-4.5,1.4-9.2,2.3-14.1,2c-15.4-0.7-25.2-10.4-24.5-25.8
		c1-22.1,12-39.1,29.3-52.3c0.8-0.6,1.7-1.1,2.5-1.1c0.8-0.1,1.7,0.2,2.6,1c15.4,14.4,33.4,21.1,53.5,21.2c3.7,0,7.5-0.2,11.3-0.6
		c16.6-3.4,30.2-11.7,40.7-25.1c1-1.3,2-1.9,3.1-2c0.7,0,1.5,0.1,2.3,0.6c19.9,10,33,25.5,36.2,47.7
		C739.9,688.5,729.4,699.6,713.5,699.8z"/>
	<path class="st13" d="M919.5,751.9c1.4,0.4,2.6,0.7,4,0.9c22.7,4.2,45.6,5.5,68.5,2.9c11.7-1.4,23.2-3.7,34.4-6.9
		c2.9-0.8,5.8-1.8,8.8-2.7c0.6-0.2,1.3-0.4,1.9-0.6c-0.1,0-0.3,0-0.4,0c-0.9,0-1.8,0-2.7,0.1c-24.1,3.4-48.3,4.9-72.6,4.9
		c-15.2,0-30.4,0.1-45.6,0.1c-0.2,0-0.5,0-0.7,0C916.4,751.1,917.9,751.6,919.5,751.9z"/>
	<path class="st18" d="M906.9,1208.7c-0.3-17-5.1-33.3-9.4-49.5c-3.5-13.7-7.4-27.1-10.8-40.8c-4.7-18.4-6.9-37.2-12.5-55.4
		c-9.4-30-24.4-57.1-42.2-82.7c-21.4-30.8-49.5-52.8-83.9-67.1c-33.4-14-67.8-19.9-102.8-19.9c-13.6,0-27.2,0.9-40.9,2.7
		c-0.2,0-0.3,0-0.5,0.1c-41.5,5.3-79.7,18.4-114.1,40.1c-12.2,7.6-23.9,16.4-35.2,26.2c-5,4.4-9.7,8.9-14.4,13.5
		c-20.1,20-37,42.7-50.5,67.9c-27.5,51.8-39.6,107.5-40.8,165.9c0,1,0,2,0,2.7c0,5.6,1,5.6,8.3,5.6c72.3-0.6,144.6,0.5,216.8-0.8
		c77-1.5,154,0.9,230.9-1.1c14.6-0.4,29.2-0.1,43.8-0.1c17,0,34.1,0,51.1,0h0.1c6.2,0,6.9-0.3,6.9-5.9
		C906.9,1209.5,906.9,1209.1,906.9,1208.7L906.9,1208.7z"/>
	<path class="st11" d="M706.4,743.5c3.8-7.7,9.2-13.1,17.9-15c9-1.9,15.2-7.8,20-15.4c1.5-2.4,2.9-4.9,1.7-7.8
		c0-0.1-0.1-0.2-0.1-0.4c-0.5,0.5-0.9,1-1.5,1.5c-10.3,10.1-22.9,13.5-37.3,11.7c-2.8-0.3-4.2,0.2-4.3,3.3
		c-0.2,9.6-1.3,19.2-2.5,28.7c-0.1,0.9-0.2,1.9-0.4,2.9c0.1-0.1,0.2-0.1,0.3-0.2C703.8,750.5,704.8,746.8,706.4,743.5z"/>
	<path class="st11" d="M593.7,750.9c0-0.4,0-0.9-0.1-1.4c-0.3-6.8-0.7-13.7-1-20.4c0-1.1-0.3-1.9-0.8-2.3c-0.5-0.4-1.4-0.5-2.4-0.4
		c-16.5,2-30.7-2.6-42.1-14.2l-0.1-0.1c-0.7-0.7-1.6-1.7-2.3-2.5c-0.1-0.1-0.1-0.1-0.2-0.2c-0.3,0.9-0.5,2,0.1,2.9
		c6.2,10.6,12.2,21.2,25.3,24.5c8.7,2.2,16.5,5.6,20.4,14.5c0.7,1.7,1.5,1.6,2.1,0.9C593,751.9,593.3,751.3,593.7,750.9z"/>
	<path class="st11" d="M681.6,785.6c0-0.1,0-0.2-0.1-0.3c-0.8,0.3-1.7,0.5-2.6,0.8c-21.8,6.8-43.4,9.2-64.7-1.5
		c-0.9-0.4-1.9-0.9-2.7-1.5v0.1c-0.4,4,3.1,4.8,5.4,5.8c15.9,7.4,32,9.3,48.1,5.2c4.4-1.1,8.8-2.6,13.1-4.6
		C679.9,789,681.9,788.1,681.6,785.6z"/>
	<path class="st1" d="M1121.9,1111c0.6-1.5,0.6-2.9,0.6-4.5c0-18.1,0-36.3,0-54.4c0-1.6,0-3.1-0.6-4.5c-0.1-0.2-0.1-0.3-0.2-0.5v0.1
		c0,21.1,0,42.3,0,63.4c0,0.3,0,0.7,0,1C1121.7,1111.4,1121.8,1111.2,1121.9,1111z"/>
	<path class="st12" d="M1117.4,842.5c0-0.8,0-1.6,0-2.2c0-0.3,0-0.5,0-0.8c0-1.6,0-3.1-0.1-4.7c0-1.3,0-2.4,0-3.7
		c-0.1,0.1-0.1,0.3-0.2,0.4c-1,2-0.8,4.1-0.8,6.2c0,11.3,0,22.5,0,33.8c0,3.8,0,7.6,0,11.4c0.4,0,0.7,0,1.1,0c0-0.1,0-0.3,0-0.4
		C1117.4,869.1,1117.4,855.8,1117.4,842.5L1117.4,842.5z"/>
	<path class="st1" d="M1121.5,1007c0-2.6,0.1-5,0.1-7.4c0-1.1,0-2.4-0.1-3.5c0-0.3,0-0.7,0-1c0-1.3,0-2.5,0-3.8
		c0.1-3.8,0.3-7.6,0.1-11.4c-0.1-1.9-0.3-3.7-0.6-5.5c-0.1-0.4-0.2-0.8-0.3-1.1v-0.1c0,0.2,0,0.3,0,0.5c0,10-0.3,20,0.5,29.9
		c0,0.4,0.1,0.8,0.1,1.3c0.1,0.6,0.1,1.3,0.2,1.9C1121.5,1006.8,1121.5,1006.9,1121.5,1007z"/>
	<path class="st1" d="M1118.3,842.5c-0.1-7.6,0.5-15.3,0.2-23.1c-0.1-2.6-0.4-5.3-0.8-7.9c0-0.1,0-0.2,0-0.2c0,0.2,0,0.5,0,0.7
		c-0.1,6.3-0.1,12.5-0.2,18.9c0,0.1,0,0.1,0,0.2c0,1.3,0,2.4,0,3.7c0,1.6,0,3.1,0.1,4.7c0,0.3,0,0.5,0,0.8c0,0.7,0,1.4,0,2.1
		l0.1,0.1l0,0c0.2,0.2,0.3,0.3,0.5,0.5l0,0l0.1,0.1C1118.3,842.9,1118.3,842.7,1118.3,842.5z"/>
	<path class="st1" d="M1119.4,908.7c-0.1-3-0.1-6,0-9.2c0.1-4.5,0.3-9,0.1-13.4c-0.1-1.9-0.2-3.8-0.5-5.5c0-0.2,0-0.4-0.1-0.6v-0.1
		c0-0.3-0.1-0.5-0.1-0.8c-0.1-0.3-0.1-0.7-0.2-1c0,0.1,0,0.2,0,0.3c-0.1,9.5-0.4,18.9,0.6,28.3c0,0.3,0.1,0.6,0.1,0.9
		C1119.3,908,1119.4,908.4,1119.4,908.7z"/>
	<line class="st0" x1="1120.4" y1="954.5" x2="1120.4" y2="954.6"/>
	<path class="st1" d="M1120.4,954.2c0-1.4,0-2.7,0-4.1c0-1.6,0.1-3,0.1-4.6c0.1-4.5,0.3-9,0.1-13.5c-0.1-1.8-0.2-3.5-0.5-5.3
		c-0.1-0.9-0.3-1.9-0.5-2.8c0,0,0,0.1,0,0.2c0,0.3,0,0.6,0,0.8c0,8.8-0.1,17.5,0.5,26.2c0.1,0.7,0.1,1.5,0.2,2.2
		c0,0.4,0.1,0.7,0.1,1.1C1120.4,954.4,1120.4,954.3,1120.4,954.2z"/>
	<path class="st1" d="M1117.3,779.2c-0.1-1.4-0.2-2.8-0.5-4.2c-0.1-0.3-0.1-0.7-0.2-1s-0.1-0.5-0.2-0.8c0-0.1-0.1-0.2-0.1-0.4
		c0,7-0.1,14,0.6,20.9c0,0.1,0,0.3,0,0.4c0.1,0.6,0.1,1.4,0.2,2v0.1c0-0.5,0-0.9,0-1.5v-0.1c0-0.5,0-1,0-1.5c0-1.3,0.1-2.5,0.1-3.9
		C1117.4,785.8,1117.7,782.5,1117.3,779.2z"/>
	<path class="st1" d="M1121.5,1156.9c0.2-3,0.1-6,0-9c-0.1-2.2-0.1-4.4,0-6.6c-0.1,0.6-0.2,1.3-0.3,2c0,0.1,0,0.1,0,0.2
		c0,0.1,0,0.2,0,0.4c-0.6,4.5-0.6,9.1-0.6,13.6c0,1.1,0,2.3,0,3.3c0,0.6,0,1.3,0,2C1121.1,1160.8,1121.4,1158.8,1121.5,1156.9z"/>
	<path class="st2" d="M1085.6,669.2c24.3-13.1,40.9-34.8,49.5-65.9c8.3-30.4,11.8-61.3,14.5-92.4c1.6-18.5,1.7-36.6-4.3-54.6
		c-5.4-16.5-12.3-32.3-21-47.4c-5.5-2.9-11.7-2.7-17.6-3.7c-15-2.5-30.2-4.8-45.6-6.2c-1,0.3-2.2,0.7-3.2,1
		c11.4,3.3,19.2,10,23.9,18.3c0.2,0.3,0.3,0.6,0.5,0.9c0.1,0.1,0.2,0.3,0.2,0.4c4.1,7.9,5.4,17.2,4.4,26.3c-0.1,1.1-0.3,2.3-0.5,3.4
		c0,0.2-0.1,0.4-0.1,0.7l0,0c-2.1,11-7.5,20.5-15.1,27.5c-6.6,6.2-14.8,10.3-23.8,11.5c-11.1,1.5-21.8,0.4-32-4.3
		c-15.3-7.1-24-21.3-24.3-36.2c-0.2-8.9,2.6-18,8.7-26.1c10.2-13.5,24.2-20.4,40.5-23.5c1.4-0.7,2.8-1.5,4.2-2.2
		c-16.9-1.6-33.7-3.4-50.6-4.8c-48.8-3.9-97.6-5.3-146.5-4.5c-4.7-0.2-9.5-0.2-14.2-0.1c-2.4,1-4.5,2.6-6.4,4.6
		c-1.1,1.3-2.3,2.7-3.3,4.4c-3.7,5.9-7.5,11.7-11,17.7c-14.8,26.4-24,54.6-26.1,84.9c-2,28.8,2.3,56.6,12.7,83.8
		c8.1,21.1,19.8,39.5,35.9,55.4c14.2,13.9,29.5,26.4,45.7,37.8c7.8,5.4,15.6,11.5,25.6,12.7c0.2,0,0.5,0.1,0.7,0.1s0.4,0.1,0.7,0.1
		c16.8,0.1,33.7,0.4,50.5,0.3c29.9-0.1,59.6-2.3,89.2-7.5C1061.7,679.5,1074.5,675.3,1085.6,669.2z"/>
	<path class="st4" d="M759.7,412.8L759.7,412.8c0-0.4,0-0.7,0-1c0.1-2.8,1.7-5.3,1.7-7.9c0-7.7,4-11.9,10.8-14.1
		c1.7-0.2,3.3-0.6,5-0.6c6-0.1,12.2-1.6,18,0.9c1.1-0.7,2.4-1.4,3.9-1.4c11.3-0.2,22.6-0.8,33.9-1c4.7-0.1,9.5-0.1,14.2,0.1
		c48.9-0.7,97.7,0.7,146.5,4.5c16.9,1.4,33.7,3.1,50.6,4.8c0.1,0,0.1,0,0.2,0c4.5,0,9,0.3,13.4,1.3c1,0.2,2.2,0.4,3.2,0.7
		c15.3,1.4,30.6,3.7,45.7,6c5.9,0.9,12.1,0.7,17.6,3.7c8-1,15.5,1.7,23.2,3c0.1,0.1,0.1,0.1,0.2,0.2l0.1,0.1c1.5,1,2.7-0.2,4.7-0.2
		c0.4-5.8-0.2-11.8,0.8-17.7c0.5-2.1,0-3.7-1.7-4.6c-0.6-0.3-1.3-0.5-2.2-0.6c-20.1-3-40.2-6.6-60.3-9.3
		c-35.3-4.7-70.6-8.4-106.2-11c-26.3-1.9-52.7-3.1-79.1-3.7c-46-0.9-92,0-138,1.8c-4.7,0.2-6.3,1.8-6.5,6.5
		c-0.8,16.5-2.1,32.9-3.3,49.3c-1.8,22.1-3.3,44.3-3.9,66.5c0,1.1-0.6,2.5,0.6,3.4v-0.1c1.1-18.6,2.1-37,3.7-55.5
		C757.3,428.9,756.9,420.6,759.7,412.8z"/>
	<path class="st1" d="M1058,400.3c-0.2,0-0.4,0-0.7-0.1c-1.9-0.3-3.9-0.5-5.8-0.6c-0.2,0-0.3,0-0.5,0c-2.1-0.1-4.3-0.2-6.4-0.2
		c-1.5,0-2.8,0-4.3,0.1c-16.3,3-30.2,10-40.5,23.5c-6,8-8.9,17.1-8.7,26c0.3,14.9,9,29.1,24.3,36.2c10.2,4.7,21,5.7,32,4.3
		c9-1.1,17.2-5.3,23.8-11.5c7.5-7,12.9-16.7,15.1-27.5l0,0c0-0.2,0.1-0.4,0.1-0.7c0.2-1.1,0.4-2.3,0.5-3.4c1-9.1-0.3-18.4-4.4-26.3
		c-0.1-0.1-0.2-0.3-0.2-0.4c-0.2-0.3-0.3-0.6-0.5-0.9C1077.2,410.2,1069.4,403.6,1058,400.3z M1025.8,409.3c2.4,0,4.6,0.5,6.5,1.6
		c4.2,2.2,6.9,6.5,6.9,11.6c0,7.2-5.6,12.7-12.9,12.8c-5,0.1-9.4-2.5-11.7-6.5c-1-1.8-1.7-3.9-1.7-6.2
		C1012.6,415.1,1018.2,409.4,1025.8,409.3z"/>
	<path class="st1" d="M277.9,547.4c6.9-10.6,10.1-22.4,10.2-34.9c0-1.6,0.1-3.1,0-4.7c-1.3-23.5-17.5-39.3-40.4-38.9
		c-16.4,0.3-30.2,6.3-41.5,17.4c-1.7,1.6-3.2,3.3-4.7,5.1c-7.7,9.3-11.3,20.1-9.1,32c3.5,19.5,14.8,33.5,33.3,40.9
		c16.2,6.5,31.6,3.9,43.3-6.5C272.4,554.9,275.3,551.5,277.9,547.4z M213.9,500.2c0-7,5.8-12.8,12.9-13c7.2-0.1,13.5,5.9,13.5,13.1
		l0,0c0,0,0,0,0,0.1c-0.1,7.1-5.8,12.8-13,12.9c-5.5,0.1-10.3-3.2-12.3-7.9c-0.6-1.5-0.9-3-1-4.8c0-0.1,0-0.2,0-0.3
		C213.9,500.3,213.9,500.3,213.9,500.2L213.9,500.2z"/>
	<path class="st19" d="M535.1,442.3c0.5-0.5,0.8-1.3,1-2c0.3-1,0.3-2.2,0.2-3.3c-1-13.8-2.1-27.5-3.2-41.3c-0.2-2.7-1.1-5.3-4.4-5.5
		c-5.6-0.4-11.4-0.7-17-0.9c-0.5,0-0.9,0.1-1.4,0.4c-0.2,0.1-0.3,0.3-0.4,0.4c-0.2,0.2-0.3,0.4-0.5,0.7l-0.1,0.1
		C520.3,406.8,529,423.9,535.1,442.3z"/>
	<path class="st3" d="M1068.1,292c-3.5-0.1-6.9-0.2-10.3-0.1c-4.7,0.1-9.4-0.6-14.1,0.1c-0.8,0.1-1.7,0.3-2.5,0.5
		c-0.3,0.1-0.6,0.2-0.9,0.3h0.1c0,0,0,0,0.1,0h0.1c4.6,0,9.1,0,13.7,0.1c0.2,0,0.3,0,0.5,0h0.1c6.4-0.9,12.8,1.4,19.1-0.8h-0.1
		C1071.9,292.1,1070,292,1068.1,292z"/>
	<path class="st6" d="M1058.6,280.1c0-0.1,0-0.2,0-0.3c-3.9,0-7.7,0-11.6,0h-0.1c0,0.1,0,0.2,0,0.3h0.1
		C1050.9,280.1,1054.7,280.1,1058.6,280.1z"/>
	<path class="st20" d="M737.5,671.8c-3.1-22.2-16.3-37.8-36.1-47.7c-0.8-0.4-1.6-0.6-2.2-0.6c-1.1,0-2.1,0.7-3.1,2
		c-10.4,13.5-24.1,21.7-40.7,25.1c-8.9,2.5-18,2.8-27.1,4.2c-5.5,0.9-10.7,2.4-15.3,4.8c-5,2.7-9.4,6.5-12.8,11.9
		c-5.3,8.2-3.3,13.4,6.3,15.3c5.8,1.3,11.7,1.5,17.5,1.5c0.6,0,1.4,0,2,0c3.9,0,7.8-0.2,11.7-0.2c0.6,0,1.1,0,1.8,0
		c7.5,0.1,14.8,0.6,22,2.9c0.1,0,0.2,0.1,0.3,0.1l0,0l0,0c0.2,0,0.5,0,0.7,0c7.3,0.3,14.4,1.5,21.5,3c2,0.4,4,0.9,5.9,1.5
		c6.7,1.7,13.5,3.5,20.3,4.1c1.1,0.1,2.2,0.1,3.3,0.1C729.4,699.6,739.8,688.4,737.5,671.8z"/>
	<path class="st21" d="M661.3,691c-7.2-2.3-14.6-2.8-22-2.9c-0.6,0-1.1,0-1.8,0c-3.9,0-7.8,0.1-11.7,0.2c-0.6,0-1.4,0-2,0
		c-5.8,0-11.7-0.2-17.5-1.5c-9.6-2-11.6-7.1-6.3-15.3c3.4-5.4,7.8-9.2,12.8-11.9c4.6-2.4,9.7-4,15.3-4.8c9.1-1.4,18.3-1.7,27.1-4.2
		c-3.9,0.4-7.6,0.6-11.3,0.6c-20-0.1-38.1-6.7-53.6-21.2c-0.9-0.8-1.7-1.1-2.5-1c-0.8,0-1.7,0.5-2.5,1.1
		c-17.3,13.1-28.3,30.1-29.3,52.3c-0.7,15.3,9.1,25,24.5,25.8c4.9,0.2,9.6-0.6,14.1-2c3.2-0.9,6.4-2.2,9.6-3.4
		c17.3-6.6,34.9-11.9,53.5-11.8c1.3,0,2.5,0,3.8,0.1l0,0C661.5,691.1,661.4,691,661.3,691z"/>
	<path class="st22" d="M680.1,592.2c-8.7-4.7-18.1-6.6-27.8-7.3c-0.1,0-0.2,0-0.2,0c0.1,0,0.2,0.1,0.3,0.1
		c-7.2,0.2-14.6-0.7-21.3,3.3c-3.3,2-6.2,4.4-8.4,7.5c-3.5,4.9-3.9,11.2-0.3,16.1c1.6,2.1,3.1,4.1,4.9,5.7
		c7.5,7.6,17.1,11.8,28.2,13.2l0,0c0.1,0,0.3-0.1,0.4-0.1c13.2-3.1,23.1-10.7,29.3-22.8l0,0c1.5-2.8,2.2-5.1,2.1-7.2
		C687.1,597.4,684.9,594.8,680.1,592.2z M675.2,613.5c-0.3,0.1-0.6,0.1-0.9,0.1c-2-0.1-3-1.8-3.4-3.7c-1.4-5.1-4.1-9-9-11.3
		c-2.1-0.9-2.8-3.1-1.9-5.3c1-2.4,3.1-2.4,5.3-1.8c6.3,1.7,12.9,10.2,13,16.7C678.3,610.7,678,613,675.2,613.5z"/>
	<path class="st2" d="M681.7,713c-9.7,0.7-17.1,5.6-22.7,13.2c-1.8,2.4-3.7,4.6-5.5,6.8V733l-0.1,0.1l0,0c0.3,9.2,1.8,18.4,1.8,27.6
		c0,3-0.1,6.2-0.5,9.2c0,0.2,0,0.4,0,0.6c0,0.3,0,0.6,0.1,0.9c0,0.1,0.1,0.2,0.2,0.3l0,0c0.1,0.1,0.3,0.2,0.4,0.3
		c0.3,0.2,0.8,0.3,1.5,0.3c1,0.1,2.1,0.1,3,0c6.3-0.1,11.1-2,14.5-5.7c2.5-2.6,4.3-6.2,5.6-10.7c3.7-12.9,4.2-26.3,4.6-39.6
		C684.6,714.1,683.9,713,681.7,713z"/>
	<path class="st23" d="M627.2,617.6c-1.8-1.8-3.3-3.7-4.9-5.7c-3.5-4.9-3.2-11.2,0.3-16.1c2.3-3.1,5.1-5.5,8.4-7.5
		c6.7-4.1,14.1-3.1,21.3-3.3c-0.1,0-0.2-0.1-0.3-0.1c-7.1-2.1-14.3-0.7-21.3,0.3c-10.5,1.5-20.8,4.2-29.6,10.4
		c-6.2,4.4-7.2,7.7-4,13.6c0.3,0.5,0.6,1.1,1,1.7c11,16.6,38,26.1,57.3,20.1c-0.1,0-0.2,0-0.3,0
		C644.2,629.4,634.7,625.2,627.2,617.6z"/>
	<path class="st24" d="M628.3,745.6c0.9-5.5,2.6-10.8,6.5-15c0.7-0.8,1.6-1.7,2.5-2.3l0,0c0.2-0.1,0.4-0.2,0.6-0.3h0.1
		c0.2-0.1,0.4-0.1,0.6-0.2h0.1c0.2,0,0.4,0,0.6,0c0.1,0,0.2,0,0.3,0c0.1,0,0.2,0,0.3,0.1c0.1,0,0.2,0,0.3,0
		c-0.3-4.3-0.7-8.7-0.8-12.9c-0.1-2.5-0.9-3.2-2.8-3c-0.3,0-0.7,0.1-1,0.2c-3.2,0.7-6.4,1.7-9.5,2.7c-2.8,0.8-5.5,1.9-8.2,2.8
		c-1.4,0.4-2.7,0.9-4.1,1.4c-0.3,0.1-0.7,0.3-0.9,0.4l0,0c-1,0.6-1.6,1.5-1.6,2.8c-0.1,11.6-0.5,23.3,3.4,34.5
		c2.8,7.8,7.9,13.4,16.6,14.6l0,0C628.4,763.1,626.7,754.6,628.3,745.6z"/>
	<path class="st25" d="M640.5,727.9c-0.1,0-0.2,0-0.3,0c-0.1,0-0.2,0-0.3-0.1c-0.1,0-0.2,0-0.3,0c-0.2,0-0.4,0-0.6,0h-0.1
		c-0.2,0-0.4,0.1-0.6,0.2h-0.1c-0.2,0.1-0.4,0.2-0.6,0.3l0,0c-0.9,0.5-1.7,1.5-2.4,2.3c-3.9,4.2-5.5,9.5-6.5,15
		c-1.6,9,0.1,17.4,3.1,25.9v0.1c0.9,0.3,2,0.7,2.9,0.9c8,1.5,8.4,1.3,9-6.9c0.1-1.6,0.2-3.2,0.2-4.8c0.1-11.1-1.7-22-3-33
		C640.6,727.9,640.5,727.9,640.5,727.9z"/>
	<path class="st26" d="M651.1,713c0.3,6.8,0.5,13.4,2.3,19.9v0.1c1.9-2.2,3.8-4.4,5.5-6.8c5.6-7.6,13-12.5,22.7-13.2
		c-8.8-3.1-17.9-3.4-27.1-3.3l0,0C652.2,709.7,651,710.4,651.1,713z"/>
	<path class="st27" d="M1012.9,422.8c0,2.2,0.6,4.3,1.6,6c2.2,4,6.6,6.6,11.7,6.5c7.3-0.1,12.9-5.6,12.9-12.8
		c0-5.1-2.7-9.4-6.9-11.6c-1.9-0.9-4.1-1.5-6.4-1.5C1018.4,409.4,1012.7,415.3,1012.9,422.8z"/>
	<path class="st27" d="M213.9,500.6c0,1.7,0.4,3.3,1,4.8c2,4.8,6.8,8,12.3,7.9c7.2-0.1,12.9-5.8,13-12.9c0,0,0,0,0-0.1
		c0-7.2-6.3-13.2-13.5-13c-7.1,0.1-12.9,5.9-12.9,13l0,0C213.9,500.4,213.9,500.5,213.9,500.6z"/>
	<path class="st28" d="M665.3,591.6c-2.2-0.6-4.3-0.6-5.3,1.8c-0.9,2.2-0.2,4.4,1.9,5.3c5,2.3,7.7,6.2,9,11.3
		c0.4,1.9,1.5,3.4,3.4,3.7c0.3,0,0.6,0,0.9-0.1c2.8-0.5,3.1-2.8,3.1-5.2C678.2,601.9,671.5,593.3,665.3,591.6z"/>
</g>
</svg>
