<?xml version="1.0" encoding="utf-8"?>
<!-- Generator: Adobe Illustrator 26.0.2, SVG Export Plug-In . SVG Version: 6.00 Build 0)  -->
<svg version="1.1" id="Layer_1" xmlns="http://www.w3.org/2000/svg" xmlns:xlink="http://www.w3.org/1999/xlink" x="0px" y="0px"
	 viewBox="0 0 27.8 27.8" style="enable-background:new 0 0 27.8 27.8;" xml:space="preserve">
<style type="text/css">
	.st0{fill:#F06B66;}
</style>
<path class="st0" d="M13.9,15.9c-1.1,0-2-0.9-2-2s0.9-2,2-2c1.1,0,2,0.9,2,2C15.9,15,15,15.9,13.9,15.9z"/>
<path class="st0" d="M13.9,27.8C6.2,27.8,0,21.6,0,13.9S6.2,0,13.9,0s13.9,6.2,13.9,13.9c0,2.5-2,4.5-4.5,4.5
	c-0.8,0-1.7-0.2-2.4-0.7l-0.1,0l0,0.1c-2.1,3.8-7,5.2-10.8,3.1s-5.2-7-3.1-10.8s7-5.2,10.8-3.1c2.5,1.4,4.1,4.1,4.1,7
	c0,0.8,0.7,1.5,1.5,1.5s1.5-0.7,1.5-1.5c0-6-4.9-10.9-10.9-10.9S3,7.9,3,13.9s4.9,10.9,10.9,10.9c3.2,0,6.2-1.4,8.3-3.8l2.3,1.9
	C21.9,26,18,27.8,13.9,27.8z M13.9,9C11.2,9,9,11.2,9,13.9c0,2.7,2.2,4.9,4.9,4.9c2.7,0,4.9-2.2,4.9-4.9c0,0,0,0,0,0
	C18.8,11.2,16.6,9,13.9,9L13.9,9z"/>
</svg>
