<?xml version="1.0" encoding="UTF-8"?>
<svg width="748px" height="246px" viewBox="0 0 748 246" version="1.1" xmlns="http://www.w3.org/2000/svg" xmlns:xlink="http://www.w3.org/1999/xlink">
    <title>Artboard Copy</title>
    <defs>
        <linearGradient x1="0%" y1="50.0032639%" x2="100%" y2="50.0032639%" id="linearGradient-1">
            <stop stop-color="#FFDE00" offset="0%"></stop>
            <stop stop-color="#FF9900" offset="100%"></stop>
        </linearGradient>
        <linearGradient x1="2.85506444%" y1="76.5389386%" x2="84.0427532%" y2="-1.61237679%" id="linearGradient-2">
            <stop stop-color="#FFDE00" offset="0%"></stop>
            <stop stop-color="#FF9900" offset="100%"></stop>
        </linearGradient>
    </defs>
    <g id="Artboard-Copy" stroke="none" stroke-width="1" fill="none" fill-rule="evenodd">
        <g id="Artboard-1" transform="translate(38.550000, 34.180000)" fill-rule="nonzero">
            <path d="M186.97,28.62 L243.24,28.62 C256.06,28.62 266.05,32.28 273.24,39.62 C280.43,46.96 284.06,56.62 284.06,68.67 C284.06,80.72 280.4,90.31 273.15,97.22 C265.9,104.13 255.92,107.54 243.15,107.54 L216.45,107.54 L216.45,146.25 L186.97,146.25 L186.97,28.62 Z M239.08,83.31 C249.4,83.31 254.56,78.23 254.64,68.16 C254.64,58.75 249.48,54.01 239.08,54.01 L216.45,54.01 L216.45,83.31 L239.08,83.31 Z" id="Shape" fill="#000000"></path>
            <path d="M331.29,148.48 C317.73,148.48 306.73,144.513333 298.29,136.58 C289.85,128.646667 285.603333,117.52 285.55,103.2 C285.55,88.64 289.796667,77.3766667 298.29,69.41 C306.78,61.41 317.85,57.41 331.42,57.41 C344.82,57.41 355.72,61.32 364.13,69.23 C372.54,77.14 376.78,88.38 376.78,103.03 C376.78,117.43 372.62,128.58 364.21,136.4 C355.8,144.22 344.86,148.15 331.45,148.15 L331.29,148.48 Z M348.02,103.29 C348.02,88.72 342.45,81.48 331.29,81.48 C320.13,81.48 314.56,88.72 314.56,103.29 C314.56,117.52 320.14,124.59 331.29,124.59 C342.44,124.59 348.02,117.52 348.02,103.29 Z" id="Shape" fill="#000000"></path>
            <path d="M425.07,147.98 C413.17,147.98 403.68,145.82 396.6,141.57 C387.62,136.156667 383.126667,127.916667 383.12,116.85 L407.84,116.85 C407.92,120.85 409.09,123.76 411.34,125.68 C413.92,127.92 417.58,128.92 422.24,128.68 C424.605569,128.663873 426.916908,127.969777 428.9,126.68 C430.677313,125.536457 431.721927,123.542193 431.65,121.43 C431.798609,119.130561 430.552975,116.966469 428.49,115.94 C426.4,114.86 422.08,113.52 415.49,111.94 C411.58,111.03 408.66,110.28 406.67,109.61 C404.03688,108.713327 401.450308,107.685373 398.92,106.53 C396.26039,105.448586 393.833126,103.866621 391.77,101.87 C389.97896,99.8667256 388.517424,97.5917254 387.44,95.13 C386.051685,92.0142552 385.368749,88.6303089 385.44,85.22 C385.44,75.82 388.773333,68.82 395.44,64.22 C402.1,59.64 410.5,57.39 420.66,57.39 C429.653333,57.39 437.32,59.14 443.66,62.64 C453.07,67.96 457.81,76.12 457.81,87.02 L434.06,87.02 C434.06,83.36 432.98,80.62 430.9,78.87 C428.82,77.12 425.82,76.37 422.16,76.62 C419.657586,76.5315691 417.179499,77.1372469 415,78.37 C413.199663,79.3054878 412.075617,81.1711717 412.09,83.2 C412.07176,83.8997234 412.244624,84.5911807 412.59,85.2 C412.97071,85.8278359 413.478182,86.3693663 414.08,86.79 C414.756943,87.2796915 415.484433,87.6954001 416.25,88.03 C417.255838,88.4497032 418.284068,88.8135895 419.33,89.12 C420.66,89.53 421.91,89.86 423.07,90.12 C424.23,90.38 425.82,90.71 427.9,91.21 C429.98,91.71 431.73,92.12 433.15,92.54 C436.619192,93.4393109 440.034662,94.534398 443.38,95.82 C446.310108,96.9903601 449.079087,98.529429 451.62,100.4 C454.353788,102.379114 456.511072,105.050695 457.87,108.14 C459.329674,111.619445 460.038458,115.367818 459.95,119.14 C459.95,128.546667 456.786667,135.706667 450.46,140.62 C444.13,145.53 435.89,147.94 425.66,147.94 L425.07,147.98 Z" id="Path" fill="#000000"></path>
            <path d="M494.85,146.4 C488.69,146.4 483.85,144.4 480.28,140.49 C476.71,136.58 474.96,131.25 474.96,124.49 L474.96,78.32 L463.14,78.32 L463.14,59 L474.96,59 L474.96,38.94 L503.59,38.94 L503.59,59 L520.45,59 L520.45,78.32 L503.59,78.32 L503.59,117.32 C503.59,119.74 504.09,121.4 505.09,122.4 C506.323141,123.485044 507.942291,124.025963 509.58,123.9 L520.45,123.9 L520.45,146.21 L494.93,146.21 L494.85,146.4 Z" id="Path" fill="#000000"></path>
            <path d="M558.87,148.23 C550.47,148.23 543.73,146.07 538.65,141.82 C533.57,137.57 530.99,131.75 530.99,124.34 C530.99,112.28 536.82,103.62 548.39,98.34 C557.13,94.34 569.78,92.19 586.26,91.85 L586.26,88.27 C586.26,80.45 581.35,76.54 571.61,76.45 C561.7,76.45 556.79,79.95 556.79,86.86 L531.57,86.86 C531.49,77.54 535.07,70.29 542.31,65.05 C549.55,59.81 559.31,57.23 571.44,57.23 C583.57,57.23 593.25,59.72 600.44,64.8 C607.63,69.88 611.26,77.7 611.26,88.27 L611.26,146.21 L586.26,146.21 L586.26,136.82 C579.136558,144.234957 569.240352,148.338439 558.96,148.14 L558.87,148.23 Z M570.69,127.76 C576.674552,127.554785 582.295073,124.835296 586.17,120.27 L586.17,107.95 C580.426728,107.308306 574.614604,108.137626 569.28,110.36 C563.7,112.78 560.95,116.1 560.95,120.36 C560.833935,122.615884 561.869233,124.776832 563.7,126.1 C565.760226,127.481878 568.227068,128.126781 570.7,127.93 L570.69,127.76 Z" id="Shape" fill="#000000"></path>
            <polygon id="Path" fill="#000000" points="622.9 28.62 651.7 28.62 651.7 146.24 622.9 146.24"></polygon>
            <polygon id="Path" fill="url(#linearGradient-1)" points="0 23.42 15.93 103.5 0 176.61 51.65 176.61 51.65 23.42"></polygon>
            <path d="M103.45,0 L30.11,0 L30.11,153.19 L81.76,153.19 L81.76,103.5 L103.45,103.5 C132.030736,103.5 155.2,80.3307358 155.2,51.75 L155.2,51.75 C155.2,23.1692642 132.030736,0 103.45,0 Z" id="Path" fill="url(#linearGradient-2)"></path>
            <polygon id="Path" fill="#BF6D00" points="51.65 176.61 30.11 153.19 51.65 153.19"></polygon>
        </g>
    </g>
</svg>
