<?xml version="1.0" encoding="iso-8859-1"?>
<!-- Generator: Adobe Illustrator 19.0.0, SVG Export Plug-In . SVG Version: 6.00 Build 0)  -->
<svg version="1.1" id="Capa_1" xmlns="http://www.w3.org/2000/svg" xmlns:xlink="http://www.w3.org/1999/xlink" x="0px" y="0px"
	 viewBox="0 0 512 512" style="enable-background:new 0 0 512 512;" xml:space="preserve">
<path style="fill:#009AEF;" d="M456.918,119.071c-0.065-6.783-5.799-12.156-12.583-12.156H64.543
	c-6.784,0-12.518,5.373-12.582,12.156c-0.001,0.049-0.001,0.098-0.001,0.146v256.268c0,8.401,6.811,15.212,15.212,15.212h374.535
	c8.401,0,15.212-6.811,15.212-15.212V119.217C456.918,119.168,456.918,119.119,456.918,119.071z"/>
<path style="fill:#057ED8;" d="M72.565,375.485V119.217c0-0.048,0-0.097,0.001-0.146c0.065-6.783,5.799-12.156,12.583-12.156H64.543
	c-6.784,0-12.518,5.373-12.583,12.156c-0.001,0.049-0.001,0.098-0.001,0.146v256.268c0,8.401,6.811,15.212,15.212,15.212h20.605
	C79.375,390.697,72.565,383.886,72.565,375.485z"/>
<path style="fill:#00C3FF;" d="M261.682,264.415c-4.299,3.198-10.187,3.198-14.486,0l-14.468-10.76L67.171,390.697h374.535
	L276.15,253.655L261.682,264.415z"/>
<g>
	<path style="fill:#00AAF0;" d="M425.563,377.334L276.15,253.655l-14.468,10.759c-4.299,3.198-10.187,3.198-14.486,0l-14.468-10.759
		L67.171,390.697h358.392V377.334z"/>
	<path style="fill:#00AAF0;" d="M51.962,119.218l-0.002-0.001v256.268c0,8.401,6.811,15.212,15.212,15.212l165.557-137.042
		L51.962,119.218z"/>
</g>
<path style="fill:#009AEF;" d="M72.565,375.485V134.54l-20.603-15.323l-0.002-0.001v256.268c0,6.685,4.319,12.35,10.314,14.391
	c0.126,0.043,0.247,0.097,0.375,0.137c0.424,0.132,0.858,0.238,1.296,0.333c0.055,0.012,0.107,0.03,0.161,0.042
	c0.99,0.202,2.016,0.309,3.066,0.309l8.034-6.65C73.541,381.607,72.565,378.661,72.565,375.485z"/>
<path style="fill:#00AAF0;" d="M276.15,253.655l165.557,137.042c8.401,0,15.212-6.811,15.212-15.212V119.217v0.001L276.15,253.655z"
	/>
<path style="fill:#009AEF;" d="M425.563,377.334c0-0.08,0-197.468,0-197.548c-0.065-6.783-5.799-12.156-12.583-12.156h-21.159
	L276.15,253.655L425.563,377.334z"/>
<path style="fill:#00AAF0;" d="M404.958,179.786c-0.065-6.783-5.799-12.156-12.583-12.156H12.583
	c-6.784,0-12.518,5.373-12.582,12.156C0,179.835,0,179.884,0,179.932V436.2c0,8.401,6.811,15.212,15.212,15.212h374.535
	c8.401,0,15.212-6.811,15.212-15.212V179.932C404.958,179.884,404.958,179.835,404.958,179.786z"/>
<path style="fill:#009AEF;" d="M20.605,436.2V179.932c0-0.048,0-0.097,0.001-0.146c0.065-6.783,5.798-12.156,12.582-12.156H12.583
	c-6.784,0-12.518,5.373-12.582,12.156C0,179.835,0,179.884,0,179.932V436.2c0,8.401,6.81,15.212,15.212,15.212h20.605
	C27.415,451.412,20.605,444.601,20.605,436.2z"/>
<path style="fill:#5BDDFC;" d="M209.722,325.13c-4.299,3.198-10.187,3.198-14.486,0l-14.468-10.76L15.212,451.412h374.535
	L224.19,314.37L209.722,325.13z"/>
<g>
	<path style="fill:#00C3FF;" d="M15.212,451.412h20.605c-5.225,0-9.833-2.636-12.571-6.65L15.212,451.412L15.212,451.412z"/>
	<path style="fill:#00C3FF;" d="M0.002,179.933L0,179.932V436.2c0,8.401,6.811,15.212,15.212,15.212L180.768,314.37L0.002,179.933z"
		/>
</g>
<path style="fill:#00AAF0;" d="M15.212,451.412l8.033-6.65c-1.664-2.439-2.64-5.386-2.64-8.562V195.256L0.002,179.933L0,179.932
	V436.2C0,444.601,6.81,451.412,15.212,451.412z"/>
<path style="fill:#00C3FF;" d="M224.19,314.37l165.557,137.042c8.401,0,15.212-6.811,15.212-15.212V179.932v0.001L224.19,314.37z"/>
<circle style="fill:#FF5050;" cx="404.96" cy="167.63" r="107.04"/>
<path style="fill:#F24040;" d="M318.521,167.63c0-55.641,42.456-101.361,96.739-106.546c-3.391-0.324-6.826-0.496-10.302-0.496
	c-59.117,0-107.042,47.924-107.042,107.041c0,59.118,47.924,107.042,107.042,107.042c3.476,0,6.911-0.172,10.302-0.496
	C360.978,268.991,318.521,223.272,318.521,167.63z"/>
<path style="fill:#E4EAF8;" d="M393.51,204.702h35.954c12.755,0,12.568,9.954,8.782,13.913c-1.493,1.561-3.754,2.342-6.784,2.342
	h-50.694c-3.444,0-6.13-0.952-8.058-2.858c-4.149-4.098-3.183-8.559-1.033-13.294c1.24-2.731,2.594-4.878,4.064-6.44
	c6.106-6.336,11.616-11.766,16.53-16.289c4.913-4.522,8.426-7.496,10.539-8.92c3.764-2.663,6.898-5.338,9.401-8.025
	c2.502-2.686,4.409-5.441,5.717-8.265c5.824-12.567-2.086-23.522-13.74-23.522c-6.016,0-10.745,2.641-14.189,7.921
	c-0.46,0.689-1.229,2.572-2.307,5.648c-2.964,8.45-5.97,9.574-9.609,9.574c-2.296,0-4.201-0.758-5.717-2.273
	c-1.515-1.516-2.273-3.582-2.273-6.199c0-12.243,10.111-28.653,34.507-28.653c7.026,0,13.018,1.102,17.978,3.306
	c15.52,7.102,20.723,26.541,11.949,41.017c-5.103,8.423-7.768,10.592-23.418,23.384c-6.912,5.648-11.653,10.034-14.223,13.156
	C395.784,201.465,394.658,202.957,393.51,204.702z"/>
<g>
</g>
<g>
</g>
<g>
</g>
<g>
</g>
<g>
</g>
<g>
</g>
<g>
</g>
<g>
</g>
<g>
</g>
<g>
</g>
<g>
</g>
<g>
</g>
<g>
</g>
<g>
</g>
<g>
</g>
</svg>
